<svg width="300" height="300" viewBox="0 0 300 300" fill="none" xmlns="http://www.w3.org/2000/svg">
<rect width="300" height="300" fill="black"/>
<g clip-path="url(#clip0_549_8637)">
<path fill-rule="evenodd" clip-rule="evenodd" d="M50 153.532C53.3863 140.891 56.7372 128.364 60.1028 115.785H60.9834C71.169 115.785 81.3604 115.785 91.549 115.791C93.6026 115.791 95.5529 116.217 97.2815 117.388C99.9498 119.178 100.984 121.783 100.83 124.904C100.688 128.225 99.2701 130.958 96.6935 133.014C95.7774 133.748 94.6339 134.203 93.709 134.712C96.0995 135.703 97.1987 137.809 96.7644 140.852C96.2443 144.422 94.3709 147.211 91.6997 149.492C88.5645 152.157 84.9536 153.564 80.7783 153.541C70.903 153.505 61.0307 153.532 51.1465 153.532H50ZM67.6763 130.246C67.8595 130.308 67.9156 130.343 67.9629 130.343C73.6156 130.349 79.2625 130.385 84.9063 130.337C86.3395 130.322 87.4564 129.545 88.2129 128.329C88.7566 127.451 88.9486 126.504 88.4256 125.543C87.9115 124.614 87.0339 124.422 86.0587 124.428C82.897 124.448 79.7352 124.431 76.5824 124.431C74.3721 124.431 72.1618 124.416 69.9486 124.448C69.6738 124.454 69.2158 124.617 69.1567 124.806C68.6307 126.596 68.1727 128.4 67.6763 130.246V130.246ZM63.7551 144.901H76.1775C77.7732 144.901 79.3718 144.928 80.9615 144.881C82.6961 144.824 83.9194 143.925 84.5695 142.337C85.3259 140.506 84.3538 139.074 82.3887 138.989H82.0519C76.7744 138.989 71.491 138.983 66.2018 139.003C65.8856 139.003 65.3507 139.122 65.2916 139.305C64.7479 141.112 64.2781 142.949 63.7551 144.907V144.901Z" fill="#DA1F27"/>
<path fill-rule="evenodd" clip-rule="evenodd" d="M250.001 115.789C249.248 118.626 248.541 121.323 247.788 124.009C247.741 124.195 247.424 124.343 247.191 124.423C246.996 124.497 246.751 124.438 246.529 124.438H219.403C216.806 124.438 215.42 125.511 214.758 128.016C213.541 132.533 212.329 137.038 211.106 141.548C210.846 142.483 210.698 143.435 211.478 144.133C211.915 144.521 212.607 144.84 213.186 144.843C218.862 144.899 224.548 144.887 230.236 144.858C230.475 144.858 230.865 144.671 230.918 144.488C231.444 142.702 231.908 140.894 232.434 138.963H217.905C218.697 136.035 219.444 133.237 220.198 130.406H246.083C245.64 132.104 245.217 133.743 244.771 135.384C243.223 141.167 241.659 146.937 240.138 152.722C239.972 153.364 239.721 153.554 239.08 153.554C228.776 153.527 218.469 153.542 208.174 153.527C203.922 153.521 200.48 151.093 199.431 147.378C198.905 145.52 199.059 143.657 199.543 141.82C200.808 137.038 202.078 132.252 203.364 127.469C205.155 120.882 211.803 115.798 218.626 115.792H250.007L250.001 115.789Z" fill="#DA1F27"/>
<path fill-rule="evenodd" clip-rule="evenodd" d="M151.32 115.823C150.54 118.752 149.781 121.573 149.021 124.433H120.498C118.021 124.433 116.606 125.543 115.968 127.941C115.776 128.699 115.575 129.453 115.344 130.322H147.411C147.254 130.967 147.133 131.494 146.994 132.02C146.453 134.04 145.877 136.054 145.384 138.095C145.212 138.796 144.914 139 144.196 139C134.205 138.974 124.212 139 114.212 138.959C113.234 138.95 112.806 139.234 112.67 140.175C112.572 140.808 112.324 141.411 112.188 142.041C111.828 143.597 112.717 144.777 114.295 144.88C114.632 144.901 114.963 144.901 115.306 144.901H143.537C143.005 146.886 142.506 148.767 142 150.645C141.817 151.346 141.59 152.05 141.451 152.757C141.336 153.363 141.058 153.558 140.431 153.552C137.807 153.508 135.175 153.532 132.545 153.532C124.847 153.532 117.141 153.538 109.449 153.523C106.719 153.523 104.322 152.659 102.464 150.601C100.351 148.267 99.9048 145.463 100.646 142.508C101.958 137.303 103.223 132.082 104.822 126.962C106.666 121.05 111 117.666 116.928 116.276C118.308 115.96 119.756 115.812 121.165 115.809C130.943 115.767 140.706 115.785 150.472 115.785C150.694 115.785 150.921 115.809 151.311 115.821L151.32 115.823Z" fill="#DA1F27"/>
<path fill-rule="evenodd" clip-rule="evenodd" d="M160.092 153.489H148.742C149.44 150.836 150.128 148.245 150.819 145.657C153.384 136.065 155.967 126.485 158.502 116.881C158.73 116.014 159.07 115.763 159.965 115.766C169.985 115.801 180.008 115.772 190.034 115.81C191.272 115.816 192.561 115.955 193.754 116.298C197.658 117.401 200.051 121.291 199.558 125.497C199.073 129.569 197.022 132.74 193.902 135.257C191.249 137.396 188.249 138.738 184.798 138.972C184.665 138.981 184.535 139.016 184.21 139.073C186.858 143.897 189.464 148.65 192.132 153.53H191.254C187.525 153.53 183.811 153.509 180.088 153.551C179.461 153.551 179.142 153.341 178.85 152.808C176.515 148.475 174.128 144.166 171.79 139.833C171.492 139.28 171.185 139.028 170.508 139.04C168.605 139.099 166.699 139.099 164.796 139.046C164.122 139.025 163.886 139.28 163.727 139.889C162.618 144.133 161.463 148.372 160.334 152.616C160.263 152.879 160.189 153.149 160.095 153.486L160.092 153.489ZM166.324 130.262C166.519 130.321 166.578 130.347 166.628 130.347C172.305 130.353 177.981 130.38 183.657 130.341C185.368 130.327 186.819 129.093 187.304 127.466C187.788 125.828 186.928 124.473 185.283 124.458C179.659 124.42 174.039 124.435 168.413 124.453C168.2 124.458 167.849 124.648 167.798 124.816C167.281 126.615 166.811 128.416 166.321 130.259L166.324 130.262Z" fill="#DA1F27"/>
<path fill-rule="evenodd" clip-rule="evenodd" d="M95.733 109.877H80.4531C80.5713 107.692 80.8048 105.571 80.7575 103.453C80.7102 101.513 81.6912 100.658 83.2928 99.8773C91.0819 96.0884 99.2522 93.4619 107.662 91.5039C116.119 89.5311 124.7 88.3243 133.346 87.647C142.967 86.9046 152.588 86.7892 162.204 87.3423C176.901 88.1942 191.33 90.448 205.31 95.2129C209.781 96.7391 214.151 98.5256 218.332 100.747C218.84 101.013 219.089 101.332 219.115 101.906C219.233 104.317 219.366 106.719 219.526 109.114C219.561 109.732 219.384 109.954 218.737 109.954C217.115 109.94 217.126 109.972 216.846 108.399C216.609 107.106 216.332 105.819 216.113 104.527C216.004 103.835 215.667 103.495 214.993 103.267C208.212 101.043 201.321 99.2029 194.309 97.9429C187.456 96.7154 180.58 95.5944 173.672 94.7811C163.885 93.6305 154.039 93.2756 144.179 93.6453C134.646 94.0061 125.226 95.1242 115.912 97.2242C109.583 98.6587 103.374 100.513 97.4025 103.083C96.5042 103.477 96.188 104.009 96.1378 104.891C96.0373 106.538 95.8777 108.18 95.733 109.871V109.877Z" fill="#DA1F27"/>
<path fill-rule="evenodd" clip-rule="evenodd" d="M202.345 159.472C202.009 159.774 201.793 159.975 201.556 160.164C191.903 168.147 181.215 174.477 169.977 179.913C163.725 182.933 157.351 185.657 150.788 187.905C150.333 188.05 149.745 188.05 149.275 187.926C131.853 183.051 116.387 174.305 101.817 163.805C99.9165 162.43 98.052 161.016 95.9688 159.472C96.4504 159.437 96.7134 159.404 96.9646 159.404C101.5 159.395 106.039 159.381 110.572 159.425C111.08 159.434 111.674 159.638 112.076 159.945C123.13 168.446 135.03 175.506 147.886 180.928C149.326 181.534 150.605 181.658 152.133 181.167C166.541 176.577 180.55 171.022 193.708 163.459C195.623 162.362 197.517 161.211 199.334 159.963C200.274 159.321 201.19 159.395 202.348 159.472H202.345Z" fill="#DA1F27"/>
<path d="M97.3167 202.073H91.9062L92.4086 199.984H106.105L105.611 202.073H100.168L97.4467 212.998H94.5952L97.3167 202.073V202.073Z" fill="#DA1F27"/>
<path d="M118.417 207.124H108.731L107.266 212.998H104.414L107.629 199.984H110.489L109.26 205.01H118.946L120.178 199.984H123.03L119.815 212.998H116.958L118.423 207.124H118.417Z" fill="#DA1F27"/>
<path d="M134.168 209.329H127.171L124.352 212.967H121.234L131.65 199.953H134.534L138.488 212.967H135.199L134.171 209.329H134.168ZM132.345 202.491L128.831 207.206H133.642L132.345 202.491Z" fill="#DA1F27"/>
<path d="M143.363 199.984H146.215L143 212.998H140.148L143.363 199.984Z" fill="#DA1F27"/>
<path d="M149.298 199.984H152.191L149.469 210.881H158.624L158.13 212.998H146.086L149.301 199.984H149.298Z" fill="#DA1F27"/>
<path d="M171.418 209.329H164.421L161.602 212.967H158.484L168.9 199.953H171.784L175.738 212.967H172.449L171.421 209.329H171.418ZM169.595 202.491L166.081 207.206H170.892L169.595 202.491Z" fill="#DA1F27"/>
<path d="M182.439 203.31L180.048 212.967H177.164L180.379 199.953H183.7L190.367 209.61L192.757 199.953H195.647L192.423 212.967H189.111L182.436 203.31H182.439Z" fill="#DA1F27"/>
<path d="M198.493 199.984H206.424C207.618 199.984 208.614 200.138 209.418 200.443C210.218 200.747 210.836 201.179 211.273 201.735C211.708 202.291 211.968 202.957 212.056 203.732C212.142 204.51 212.071 205.365 211.838 206.305C211.687 206.906 211.486 207.491 211.235 208.056C210.984 208.618 210.679 209.15 210.319 209.647C209.958 210.144 209.548 210.6 209.078 211.011C208.611 211.422 208.085 211.774 207.503 212.067C206.921 212.363 206.279 212.59 205.585 212.756C204.888 212.919 204.128 212.998 203.307 212.998H195.281L198.496 199.984H198.493ZM203.741 210.881C204.308 210.881 204.82 210.819 205.278 210.694C205.736 210.567 206.141 210.396 206.498 210.177C206.853 209.958 207.166 209.701 207.438 209.405C207.71 209.112 207.94 208.798 208.138 208.461C208.336 208.127 208.499 207.778 208.629 207.42C208.759 207.065 208.865 206.707 208.954 206.358C209.039 206.003 209.101 205.654 209.137 205.305C209.172 204.956 209.163 204.622 209.116 204.306C209.069 203.989 208.968 203.693 208.818 203.421C208.667 203.149 208.448 202.913 208.165 202.717C207.881 202.516 207.52 202.359 207.083 202.244C206.646 202.129 206.117 202.07 205.502 202.07H200.854L198.635 210.878H203.747L203.741 210.881Z" fill="#DA1F27"/>
</g>
<defs>
<clipPath id="clip0_549_8637">
<rect width="200" height="126" fill="white" transform="translate(50 87)"/>
</clipPath>
</defs>
</svg>
