<svg width="287" height="78" viewBox="0 0 287 78" fill="none" xmlns="http://www.w3.org/2000/svg">
<path d="M39.472 11.032C39.472 6.28 36.352 0.855999 31.12 0.568H9.232C3.712 0.568 0.4 6.184 0.4 11.032C0.4 15.784 3.52 21.208 8.752 21.496H30.64C36.16 21.496 39.472 15.88 39.472 11.032ZM29.632 16.888H10.24C5.824 16.888 4.864 13.336 4.864 11.032C4.864 8.728 5.824 5.176 10.24 5.176H29.632C34.048 5.176 35.008 8.728 35.008 11.032C35.008 13.336 34.048 16.888 29.632 16.888ZM48.883 11.032V2.92C48.883 1.672 47.827 0.615999 46.579 0.615999C45.331 0.615999 44.275 1.672 44.275 2.92V11.032C44.275 15.784 47.395 21.208 52.627 21.496H74.515C80.035 21.496 83.347 15.88 83.347 11.032V2.92C83.347 1.672 82.291 0.615999 81.043 0.615999C79.795 0.615999 78.739 1.672 78.739 2.92V11.032C78.739 13.336 77.779 16.888 73.363 16.888H54.259C49.843 16.888 48.883 13.336 48.883 11.032ZM119.014 13.336H119.206C122.758 13.336 125.686 10.504 125.686 6.952C125.686 3.4 122.758 0.568 119.206 0.568H90.454C89.206 0.568 88.15 1.624 88.15 2.872C88.15 4.12 89.206 5.176 90.454 5.176H119.398C120.358 5.176 121.222 5.992 121.222 6.952C121.222 7.96 120.358 8.728 119.398 8.728H93.958C90.694 8.728 88.15 11.368 88.15 14.584V19.192C88.15 20.44 89.206 21.496 90.454 21.496C91.654 21.496 92.758 20.44 92.758 19.192V15.112C92.758 14.152 93.43 13.48 94.246 13.336H103.798C110.71 13.336 116.566 16.984 121.75 20.824C122.23 21.208 122.758 21.496 123.382 21.496C124.63 21.496 125.686 20.44 125.686 19.192C125.686 18.328 125.062 17.656 124.39 17.128C122.518 15.688 120.742 14.392 119.014 13.336ZM2.704 56.568C1.456 56.568 0.4 57.624 0.4 58.872V75.192C0.4 76.44 1.456 77.496 2.704 77.496C3.904 77.496 5.008 76.44 5.008 75.192V69.336H31.456C35.008 69.336 37.936 66.504 37.936 62.952C37.936 59.4 35.008 56.568 31.456 56.568H2.704ZM31.648 61.176C32.608 61.176 33.472 61.992 33.472 62.952C33.472 63.96 32.608 64.728 31.648 64.728H5.008V61.176H31.648ZM55.6975 61.656C56.0815 61.176 56.8015 60.36 57.5215 60.36C58.2415 60.36 58.9615 61.128 59.3935 61.656L70.5775 76.584C71.0095 77.16 71.6815 77.496 72.4015 77.496C73.6495 77.496 74.7055 76.44 74.7055 75.192C74.7055 74.568 74.4175 73.992 74.0335 73.56L62.3695 57.96C61.2655 56.472 59.4415 55.608 57.5215 55.608C55.4575 55.608 53.5855 56.616 52.4815 58.104L40.8175 73.8C40.4815 74.184 40.3375 74.664 40.3375 75.192C40.3375 76.44 41.3935 77.496 42.6415 77.496C43.3135 77.496 43.9855 77.16 44.4175 76.632L55.6975 61.656ZM110.389 69.336H110.581C114.133 69.336 117.061 66.504 117.061 62.952C117.061 59.4 114.133 56.568 110.581 56.568H81.829C80.581 56.568 79.525 57.624 79.525 58.872C79.525 60.12 80.581 61.176 81.829 61.176H110.773C111.733 61.176 112.597 61.992 112.597 62.952C112.597 63.96 111.733 64.728 110.773 64.728H85.333C82.069 64.728 79.525 67.368 79.525 70.584V75.192C79.525 76.44 80.581 77.496 81.829 77.496C83.029 77.496 84.133 76.44 84.133 75.192V71.112C84.133 70.152 84.805 69.48 85.621 69.336H95.173C102.085 69.336 107.941 72.984 113.125 76.824C113.605 77.208 114.133 77.496 114.757 77.496C116.005 77.496 117.061 76.44 117.061 75.192C117.061 74.328 116.437 73.656 115.765 73.128C113.893 71.688 112.117 70.392 110.389 69.336ZM157.181 56.568H124.157C122.909 56.568 121.853 57.624 121.853 58.872C121.853 60.072 122.813 61.08 123.965 61.176H138.365V75.192C138.365 76.44 139.421 77.496 140.669 77.496C141.917 77.496 142.973 76.44 142.973 75.192V61.176H157.181C158.429 61.176 159.485 60.12 159.485 58.872C159.485 57.624 158.429 56.568 157.181 56.568ZM196.963 58.872V68.328C196.963 70.632 196.819 71.88 195.859 71.88C195.331 71.88 194.563 71.448 193.363 70.728L171.379 57.288C170.659 56.856 169.795 56.568 168.883 56.568C166.291 56.568 164.275 58.632 164.275 61.224V75.192C164.275 76.44 165.331 77.496 166.579 77.496C167.827 77.496 168.883 76.44 168.883 75.192V65.736C168.883 63.432 169.027 62.184 169.987 62.184C170.515 62.184 171.283 62.616 172.483 63.336L194.467 76.776C195.187 77.208 196.051 77.496 196.963 77.496C199.555 77.496 201.571 75.432 201.571 72.84V58.872C201.571 57.624 200.515 56.568 199.267 56.568C198.019 56.568 196.963 57.624 196.963 58.872ZM206.369 58.872C206.369 60.12 207.425 61.176 208.673 61.176H280.433C281.393 61.176 282.257 61.992 282.257 62.952C282.257 63.96 281.393 64.728 280.433 64.728H254.993C251.729 64.728 249.185 67.368 249.185 70.584V75.192C249.185 76.44 250.241 77.496 251.489 77.496C252.689 77.496 253.793 76.44 253.793 75.192V71.112C253.793 70.152 254.465 69.48 255.281 69.336H264.833C271.745 69.336 277.601 72.984 282.785 76.824C283.265 77.208 283.793 77.496 284.417 77.496C285.665 77.496 286.721 76.44 286.721 75.192C286.721 74.328 286.097 73.656 285.425 73.128C283.553 71.688 281.777 70.392 280.049 69.336H280.241C283.793 69.336 286.721 66.504 286.721 62.952C286.721 59.4 283.793 56.568 280.241 56.568H208.673C207.425 56.568 206.369 57.624 206.369 58.872ZM242.705 77.496C243.953 77.496 245.009 76.44 245.009 75.192C245.009 73.944 243.953 72.888 242.705 72.888H212.465C211.601 72.888 210.977 72.312 210.977 71.688V69.336H241.649C242.897 69.336 243.953 68.28 243.953 67.032C243.953 65.784 242.897 64.728 241.649 64.728H209.441C207.329 64.728 206.369 65.16 206.369 66.888V71.208C206.369 75 209.393 77.496 212.225 77.496H242.705Z" fill="white"/>
</svg>
