<svg width="300" height="300" viewBox="0 0 300 300" fill="none" xmlns="http://www.w3.org/2000/svg">
<rect width="300" height="300" fill="black"/>
<path d="M91.2596 161.488C92.8804 161.488 94.1995 161.976 95.1983 162.952C96.1029 163.815 96.5364 164.848 96.5364 166.049C96.5364 167.176 96.0464 168.152 95.123 169.015C94.1995 169.86 92.8992 170.311 91.2408 170.311H84.7014V161.488H91.2408M74.261 184.427C74.261 185.591 74.8076 186.549 75.9194 187.225C76.8994 187.844 78.1244 188.144 79.5378 188.144C80.8758 188.144 82.0819 187.844 83.1184 187.225C84.1549 186.624 84.7014 185.817 84.7014 184.803V177.163H94.1807C98.1571 177.163 101.38 175.999 103.848 173.652C106.129 171.475 107.259 168.846 107.259 165.768C107.259 162.689 106.034 160.192 103.66 158.127C100.965 155.856 97.1583 154.711 92.2208 154.711H78.2374C77.5213 154.711 76.7298 154.955 75.8441 155.424C74.7699 156.044 74.2422 156.738 74.2422 157.546V184.409L74.261 184.427Z" fill="white"/>
<path d="M110.711 164.473V158.334C110.711 157.058 111.201 156.1 112.143 155.443C113.085 154.786 114.235 154.43 115.554 154.43C116.873 154.43 118.117 154.73 119.173 155.312C120.209 155.894 120.756 156.664 120.756 157.565V180.955H132.44C133.646 180.955 134.607 181.293 135.304 182.006C135.964 182.72 136.303 183.583 136.303 184.559C136.303 185.535 135.983 186.343 135.38 187.018C134.682 187.769 133.684 188.145 132.44 188.145H115.083C113.594 188.145 112.426 187.713 111.578 186.868C110.994 186.305 110.711 185.742 110.711 185.291V164.473V164.473Z" fill="white"/>
<path d="M161.23 162.597L166.412 174.442H155.765L161.23 162.597M142.102 184.504C142.102 185.687 142.516 186.606 143.383 187.245C144.118 187.827 145.06 188.127 146.191 188.127C147.454 188.127 148.641 187.77 149.734 187.076C150.808 186.4 151.524 185.461 151.882 184.279L152.862 181.463H169.314L170.822 184.635C171.369 185.743 172.141 186.588 173.215 187.17C174.101 187.695 175.025 188.014 175.967 188.014C177.192 188.014 178.266 187.62 179.189 186.869C180.113 186.081 180.584 185.161 180.584 184.053C180.584 183.697 180.527 183.303 180.433 182.871C180.339 182.477 180.207 182.12 180.056 181.838L167.958 158.26C167.373 157.153 166.393 156.195 165.055 155.369C163.68 154.581 162.266 154.168 160.777 154.168C159.477 154.168 158.233 154.487 157.046 155.163C155.859 155.839 154.803 156.852 153.918 158.242L143.364 180.674C142.554 182.139 142.139 183.396 142.139 184.504H142.102Z" fill="white"/>
<path d="M185.977 169.466V158.053C185.977 157.246 186.504 156.607 187.597 156.063C188.634 155.537 189.84 155.256 191.216 155.256C192.177 155.256 193.044 155.387 193.816 155.669C194.589 155.95 195.23 156.401 195.739 157.039L214.961 174.385V158.034C214.961 157.133 215.432 156.42 216.45 155.894C217.43 155.387 218.598 155.105 219.936 155.105C221.274 155.105 222.292 155.35 223.234 155.819C224.195 156.269 224.666 156.908 224.666 157.752V185.404C224.666 186.155 224.176 186.774 223.14 187.3C222.103 187.863 220.954 188.107 219.672 188.107C218.692 188.107 217.788 187.957 216.94 187.6C216.092 187.262 215.451 186.756 214.98 186.08L195.757 168.396V185.028C195.757 185.948 195.267 186.68 194.231 187.244C193.194 187.826 192.026 188.107 190.726 188.107C189.633 188.107 188.634 187.882 187.786 187.394C186.806 186.831 186.203 186.042 186.014 185.047V169.447L185.977 169.466Z" fill="white"/>
<path d="M85.7007 223.023V204.27H78.2567C77.0883 204.27 76.1648 203.913 75.5053 203.2C74.8268 202.486 74.4688 201.623 74.4688 200.609C74.4688 199.595 74.8268 198.732 75.5429 198.056C76.2779 197.343 77.3521 197.023 78.7655 197.023H101.229C103.057 197.023 104.452 197.418 105.413 198.187C106.223 198.826 106.619 199.652 106.619 200.609C106.619 201.566 106.261 202.411 105.564 203.2C104.885 204.026 104.094 204.27 103.208 204.27H95.7641V228.486C95.7641 229.762 95.2365 230.738 94.1623 231.433C93.2388 232.015 92.0704 232.334 90.6759 232.334C89.2813 232.334 88.1883 232.053 87.2083 231.508C86.2283 230.964 85.7383 230.213 85.7383 229.293V223.042L85.7007 223.023Z" fill="white"/>
<path d="M119.963 214.596C119.963 211.855 120.999 209.565 123.072 207.725C125.145 205.867 127.84 204.947 131.233 204.947H132.024C135.134 204.947 137.602 205.81 139.393 207.556C141.164 209.283 142.069 211.911 142.069 215.403C142.069 218.275 141.108 220.603 139.204 222.349C137.225 224.226 134.512 225.183 131.101 225.183C127.69 225.183 124.938 224.339 123.035 222.611C121.131 220.884 120.001 218.557 120.001 215.459C120.001 215.328 119.963 214.596 119.963 214.596M109.07 215.328V216.116C109.07 217.599 109.391 218.988 109.768 220.284C110.446 222.799 111.841 224.977 113.914 226.798C116.269 228.863 119.473 230.364 123.506 231.397C126.125 232.016 128.651 232.354 131.101 232.354C136.34 232.354 140.75 231.341 144.274 229.388C147.289 227.736 149.532 225.502 151.02 222.705C152.264 220.415 152.867 217.993 152.867 215.403V214.69C152.867 208.983 150.53 204.665 145.819 201.662C141.861 199.109 136.943 197.832 131.082 197.832C124.787 197.832 119.661 199.259 115.647 202.112C112.161 204.59 110.069 207.875 109.334 211.949" fill="white"/>
<path d="M155.482 204.063C155.294 203.819 155.162 203.556 155.068 203.312C155.03 203.068 154.992 202.806 154.992 202.543C154.992 201.548 155.576 200.647 156.745 199.915C157.913 199.126 159.214 198.77 160.665 198.77C161.418 198.77 162.116 198.882 162.813 199.126C163.473 199.37 163.963 199.689 164.283 200.159L173.235 209.47L181.64 200.497C182.111 199.933 182.714 199.502 183.468 199.239C184.24 198.957 185.013 198.807 185.805 198.807C187.199 198.807 188.481 199.22 189.706 200.009C190.949 200.797 191.515 201.642 191.515 202.524C191.515 202.806 191.515 203.087 191.42 203.388C191.326 203.65 191.194 203.894 191.044 204.045L178.059 216.904V229.462C178.059 230.326 177.569 231.058 176.608 231.546C175.647 232.053 174.516 232.334 173.216 232.334C171.915 232.334 170.766 232.053 169.805 231.508C168.731 230.889 168.222 230.082 168.222 229.106V216.904L155.444 204.045L155.482 204.063Z" fill="white"/>
<path d="M193.891 207.858C193.891 204.46 195.795 201.794 199.564 199.917C202.654 198.359 206.178 197.57 210.136 197.57H211.549C213.641 197.57 215.771 197.871 217.957 198.471C220.557 199.185 221.99 200.123 222.48 201.25C222.725 201.794 222.8 202.207 222.838 202.92C222.875 203.972 222.404 204.835 221.443 205.473C220.539 206.093 219.333 206.412 217.844 206.412C216.788 206.412 215.488 206.149 214.018 205.624C213.396 205.455 212.793 205.323 212.228 205.229C211.644 205.154 211.022 205.098 210.324 205.098C208.968 205.098 207.705 205.342 206.668 205.849C205.632 206.299 204.765 206.712 204.652 207.407V207.82C204.652 208.646 206.536 209.528 210.117 210.26C214.979 211.237 218.353 212.175 220.256 213.114C223.912 214.897 225.702 217.506 225.702 220.942C225.702 224.077 224.345 226.705 221.707 228.864C218.786 231.191 214.866 232.355 209.91 232.355H208.836C206.857 232.355 204.558 232.149 201.9 231.755C199.281 231.342 197.264 230.816 195.945 230.084C195.06 229.784 194.419 229.333 194.042 228.732C193.665 228.113 193.477 227.456 193.477 226.724C193.477 225.935 193.608 225.203 193.853 224.565C194.438 223.927 195.041 223.476 195.681 223.176C196.303 222.894 196.963 222.744 197.623 222.744C198.358 222.744 199.13 222.857 199.941 223.082C200.77 223.363 201.599 223.626 202.447 223.908C203.842 224.189 205.104 224.396 206.291 224.584C207.479 224.771 208.421 224.865 209.269 224.865C210.626 224.865 211.794 224.677 212.737 224.246C213.698 223.833 214.282 223.194 214.565 222.369L214.659 221.58C214.659 220.829 214.207 220.153 213.283 219.647C212.397 219.083 210.984 218.595 209.099 218.239C207.215 217.826 205.425 217.431 203.747 217.037C200.902 216.324 198.678 215.404 197.151 214.334C194.965 212.813 193.853 210.842 193.853 208.458V207.876L193.891 207.858Z" fill="white"/>
<path d="M216.449 101.867C213.848 104.383 208.929 106.335 205.914 107.461C208.59 107.593 211.982 107.968 215.035 107.968C227.869 107.968 238.253 106.598 238.253 104.927C238.253 103.256 228.623 101.961 216.43 101.867H216.449Z" fill="url(#paint0_linear_549_8613)"/>
<path d="M178.984 142.378L199.545 142.754L222.951 132.279L204.727 129.219V132.204L178.984 142.378Z" fill="url(#paint1_linear_549_8613)"/>
<path d="M149.812 124.262L158.576 124.525L158.444 120.695L149.812 124.262Z" fill="url(#paint2_linear_549_8613)"/>
<path d="M148.508 78.2891L120.938 111.197L149.809 124.262C149.809 108.982 149.771 93.7387 148.64 78.4768L148.49 78.3078L148.508 78.2891Z" fill="#CF3C28"/>
<path d="M148.514 78.2891C149.212 87.8066 149.815 103.237 149.815 124.262L158.446 121.353L158.578 104.983L169.094 100.741L148.477 78.3078L148.514 78.2891Z" fill="#B1292D"/>
<path d="M111.554 120.957C111.12 128.597 102.696 129.048 95.7422 130.399C99.5301 130.756 103.846 130.944 108.444 130.944C123.671 130.944 136.034 128.71 136.034 125.95C136.034 123.379 125.33 121.239 111.554 120.957V120.957Z" fill="url(#paint3_linear_549_8613)"/>
<path d="M112.178 89.3835H112.14C111.612 85.4037 103.358 82.25 93.2379 82.25C83.1179 82.25 74.8825 85.4037 74.3736 89.3835H74.3359V123.136C74.3359 127.266 82.8164 130.645 93.2379 130.645C103.659 130.645 112.159 127.247 112.178 123.136V89.3835Z" fill="url(#paint4_linear_549_8613)"/>
<path d="M112.139 89.4394C112.139 93.6068 103.658 96.9671 93.2177 96.9671C82.7773 96.9671 74.2969 93.6068 74.2969 89.4394C74.2969 85.2719 82.7773 81.9492 93.2177 81.9492C103.658 81.9492 112.139 85.2907 112.139 89.4394V89.4394Z" fill="url(#paint5_linear_549_8613)"/>
<path d="M179.963 114.595L178.945 142.416L204.914 132.391L205.046 104.195L179.963 114.595Z" fill="url(#paint6_linear_549_8613)"/>
<path d="M179.96 114.594L205.044 104.194L182.015 95.3711L158.477 104.851L179.96 114.594Z" fill="url(#paint7_linear_549_8613)"/>
<path d="M158.483 104.852L179.967 114.594L178.95 142.415L158.352 133.179L158.483 104.852Z" fill="url(#paint8_linear_549_8613)"/>
<defs>
<linearGradient id="paint0_linear_549_8613" x1="240.74" y1="104.908" x2="203.464" y2="104.908" gradientUnits="userSpaceOnUse">
<stop stop-color="white"/>
<stop offset="1" stop-color="#211E1F"/>
</linearGradient>
<linearGradient id="paint1_linear_549_8613" x1="225.42" y1="135.996" x2="176.516" y2="135.996" gradientUnits="userSpaceOnUse">
<stop stop-color="white"/>
<stop offset="1" stop-color="#211E1F"/>
</linearGradient>
<linearGradient id="paint2_linear_549_8613" x1="161.082" y1="122.61" x2="147.325" y2="122.61" gradientUnits="userSpaceOnUse">
<stop stop-color="white"/>
<stop offset="1" stop-color="#211E1F"/>
</linearGradient>
<linearGradient id="paint3_linear_549_8613" x1="138.484" y1="125.95" x2="93.2734" y2="125.95" gradientUnits="userSpaceOnUse">
<stop stop-color="white"/>
<stop offset="1" stop-color="#211E1F"/>
</linearGradient>
<linearGradient id="paint4_linear_549_8613" x1="73.6952" y1="106.466" x2="112.781" y2="106.466" gradientUnits="userSpaceOnUse">
<stop stop-color="#6FBA53"/>
<stop offset="0.95" stop-color="#008054"/>
</linearGradient>
<linearGradient id="paint5_linear_549_8613" x1="73.6938" y1="89.4769" x2="112.742" y2="89.4769" gradientUnits="userSpaceOnUse">
<stop stop-color="#6FBA53"/>
<stop offset="1" stop-color="#00A254"/>
</linearGradient>
<linearGradient id="paint6_linear_549_8613" x1="204.745" y1="136.033" x2="179.966" y2="111.139" gradientUnits="userSpaceOnUse">
<stop stop-color="#F9E25A"/>
<stop offset="1" stop-color="#EF973F"/>
</linearGradient>
<linearGradient id="paint7_linear_549_8613" x1="162.302" y1="93.3437" x2="201.123" y2="115.851" gradientUnits="userSpaceOnUse">
<stop offset="0.63" stop-color="#F9E25A"/>
<stop offset="1" stop-color="#EF973F"/>
</linearGradient>
<linearGradient id="paint8_linear_549_8613" x1="154.168" y1="128.918" x2="183.86" y2="118.068" gradientUnits="userSpaceOnUse">
<stop offset="0.6" stop-color="#F9E25A"/>
<stop offset="1" stop-color="#EF973F"/>
</linearGradient>
</defs>
</svg>
