<svg width="300" height="300" viewBox="0 0 300 300" fill="none" xmlns="http://www.w3.org/2000/svg">
<rect width="300" height="300" fill="black"/>
<g clip-path="url(#clip0_549_8653)">
<path d="M50 101.148H95.2212V117.894L83.2917 117.395V152.69H61.8297V117.295L50 117.894V101.148Z" fill="white"/>
<path d="M227.477 158.707H249.998V167.047L244.056 166.797V184.375H233.369V166.747L227.477 167.047V158.707Z" fill="white"/>
<path d="M100.336 101V152.641H121.188V134.841H134.277V152.691H154.979V101.1H134.327V118.545H121.188V101H100.336Z" fill="white"/>
<path d="M191.276 118.294H191.875C191.776 119.093 195.887 134.035 195.887 134.035H187.265C187.964 130.623 191.276 118.294 191.276 118.294V118.294ZM158.789 152.584H181.649L183.453 146.364H199.594L201.697 152.479H224.357L203.211 101.148H179.546L158.789 152.584Z" fill="white"/>
<path d="M249.933 101.148H228.477V152.584H249.933V101.148Z" fill="white"/>
<path d="M62.0312 158.655V184.273H73.0564V175.351H80.9798V168.732H73.0564V166.074H82.084V158.605L62.0312 158.655Z" fill="white"/>
<path d="M111.768 158.605H100.938V184.473H111.768V158.605Z" fill="white"/>
<path d="M151.772 168.028L161.799 164.821C161.799 164.821 158.691 157.103 143.449 158.507C143.449 158.507 130.11 160.01 130.715 172.644C130.715 172.644 130.011 182.571 144.753 184.779C144.753 184.779 164.706 187.387 163.302 169.338H146.656V175.402H151.573C151.573 175.402 150.873 177.86 146.257 177.66C146.257 177.66 140.642 176.556 141.846 170.442C141.846 170.442 142.545 166.83 146.656 166.13C146.656 166.13 149.564 165.326 151.772 168.034V168.028Z" fill="white"/>
<path d="M182.102 158.656H192.583V167.279H199.252V158.656H209.528V184.324H199.152V175.502H192.633V184.474H182.102V158.656Z" fill="white"/>
<path d="M62.2812 189.584H66.365L66.2874 193.928H66.365C66.4039 193.745 66.4871 193.551 66.6092 193.335C66.648 193.262 66.759 193.079 66.9421 192.791L68.9673 189.578H73.5172L69.9328 194.461L73.9056 199.593H69.0672L67.0642 196.564C66.8311 196.175 66.5981 195.781 66.3706 195.388H66.2929L66.3706 199.593H62.2868V189.584H62.2812Z" fill="white"/>
<path d="M74.8125 189.586H79.0017V199.596H74.8125V189.586Z" fill="white"/>
<path d="M80.8828 189.584H84.9L88.6564 195.127H88.7785C88.6231 194.328 88.5288 193.79 88.49 193.512C88.4511 193.235 88.4345 192.929 88.4345 192.591V189.584H92.4295V199.593H88.4345L84.7613 194.339H84.6226C84.6947 194.7 84.7613 195.049 84.8112 195.388C84.8612 195.726 84.8889 196.037 84.8889 196.331V199.588H80.8939V189.578L80.8828 189.584Z" fill="white"/>
<path d="M106.428 193.697C106.428 194.723 106.367 195.478 106.245 195.96C106.056 196.721 105.657 197.381 105.052 197.952C104.447 198.524 103.703 198.968 102.832 199.278C101.961 199.595 101.068 199.75 100.158 199.75C98.349 199.75 96.8509 199.301 95.669 198.402C94.4261 197.459 93.8047 196.199 93.8047 194.64C93.8047 193.081 94.415 191.777 95.6357 190.817C96.8176 189.89 98.3379 189.43 100.197 189.43C101.295 189.43 102.372 189.641 103.415 190.062C104.602 190.545 105.401 191.189 105.817 191.982L101.922 193.242C101.761 192.986 101.539 192.798 101.262 192.67C100.985 192.542 100.674 192.476 100.33 192.476C99.6141 192.476 99.0426 192.709 98.6209 193.181C98.2269 193.619 98.0272 194.152 98.0272 194.79C98.0272 195.372 98.2158 195.872 98.5931 196.277C98.9982 196.715 99.5198 196.931 100.175 196.931C100.541 196.931 100.885 196.859 101.19 196.721C101.539 196.56 101.761 196.332 101.861 196.049H99.9692V193.697H106.422H106.428Z" fill="white"/>
<path d="M127.24 194.605C127.24 196.17 126.618 197.429 125.37 198.389C124.182 199.299 122.684 199.76 120.87 199.76C119.055 199.76 117.557 199.305 116.37 198.389C115.121 197.429 114.5 196.17 114.5 194.605C114.5 193.04 115.121 191.814 116.37 190.843C117.568 189.905 119.072 189.434 120.87 189.434C122.668 189.434 124.166 189.905 125.37 190.843C126.618 191.814 127.24 193.068 127.24 194.605ZM118.728 194.677C118.728 195.243 118.928 195.698 119.322 196.059C119.716 196.414 120.232 196.591 120.87 196.591C121.508 196.591 122.018 196.414 122.423 196.053C122.828 195.692 123.034 195.237 123.034 194.683C123.034 194.128 122.834 193.662 122.44 193.284C122.046 192.907 121.519 192.718 120.87 192.718C120.221 192.718 119.699 192.907 119.311 193.284C118.922 193.662 118.728 194.128 118.728 194.683V194.677Z" fill="white"/>
<path d="M128.719 189.586H136.426V192.443H132.925V193.498H135.993V196.094H132.925V199.596H128.719V189.586V189.586Z" fill="white"/>
<path d="M146.349 189.586H150.638L152.23 194.84H152.33C152.369 194.619 152.413 194.397 152.463 194.169C152.508 193.947 152.569 193.725 152.646 193.52L153.945 189.586H158.189L160.082 199.596H156.048L155.476 194.114H155.415C155.321 194.447 155.232 194.779 155.143 195.112L153.473 199.601H151.021L149.539 195.357C149.484 195.168 149.434 194.957 149.378 194.73C149.323 194.496 149.289 194.297 149.267 194.119H149.123C149.123 194.308 149.112 194.519 149.084 194.746C149.056 194.979 149.04 195.168 149.023 195.318L148.529 199.601H144.484L146.354 189.591L146.349 189.586Z" fill="white"/>
<path d="M172.075 189.586V195.495C172.075 196.916 171.592 197.992 170.627 198.725C169.717 199.418 168.424 199.762 166.754 199.762C165.084 199.762 163.791 199.418 162.881 198.736C161.91 198.003 161.422 196.927 161.422 195.495V189.586H165.606V195.173C165.606 195.795 165.694 196.194 165.877 196.372C166.061 196.544 166.349 196.633 166.754 196.633C167.259 196.633 167.586 196.488 167.742 196.2C167.842 196.011 167.892 195.667 167.892 195.173V189.586H172.075V189.586Z" fill="white"/>
<path d="M177.325 199.596H172.875L176.892 189.586H181.509L185.604 199.596H181.198L180.804 198.336H177.652L177.319 199.596H177.325ZM180.094 195.972L179.589 194.191C179.55 194.041 179.5 193.842 179.445 193.581C179.389 193.32 179.345 193.098 179.306 192.91H179.156L178.401 195.967H180.094V195.972Z" fill="white"/>
<path d="M190.168 189.586L191.444 192.205H191.566C191.627 192.05 191.689 191.883 191.761 191.711C191.827 191.539 191.894 191.389 191.96 191.256L192.765 189.586H197.487L193.553 195.273V199.601H189.447V195.273L185.43 189.586H190.168V189.586Z" fill="white"/>
<path d="M204.539 189.586H213.323V192.837L211.009 192.738V199.601H206.831V192.738L204.539 192.837V189.586Z" fill="white"/>
<path d="M214.422 189.586H218.467V192.965H221.025V189.586H225.042V199.596H221.025V196.117H218.467V199.596H214.422V189.586Z" fill="white"/>
<path d="M230.341 199.596H225.891L229.908 189.586H234.524L238.619 199.596H234.214L233.82 198.336H230.668L230.335 199.596H230.341ZM233.109 195.972L232.604 194.191C232.566 194.041 232.516 193.842 232.46 193.581C232.405 193.32 232.36 193.098 232.327 192.91H232.177L231.423 195.967H233.115L233.109 195.972Z" fill="white"/>
<path d="M239.523 189.586H243.707V199.596H239.523V189.586Z" fill="white"/>
</g>
<defs>
<clipPath id="clip0_549_8653">
<rect width="200" height="98.7543" fill="white" transform="translate(50 101)"/>
</clipPath>
</defs>
</svg>
