<svg width="103" height="44" viewBox="0 0 103 44" fill="none" xmlns="http://www.w3.org/2000/svg">
<path d="M1.61438 24.4445H19.6827C21.9148 24.4445 23.7548 22.6648 23.7548 20.4327C23.7548 19.4674 23.3929 18.5625 22.8197 17.8989C23.3929 17.2051 23.7548 16.3304 23.7548 15.335C23.7548 13.1028 21.9148 11.293 19.6827 11.293H1.61438C0.830114 11.293 0.166504 11.9566 0.166504 12.7408V22.9966C0.166504 23.7809 0.830114 24.4445 1.61438 24.4445ZM19.8033 14.1887C20.4066 14.1887 20.9496 14.7317 20.9496 15.335C20.9496 15.9684 20.4368 16.4209 19.8335 16.4209H3.06226V14.1887H19.8033ZM3.06226 19.3166H19.8033C20.4066 19.3166 20.9496 19.7992 20.9496 20.4327C20.9496 21.036 20.4066 21.5488 19.8033 21.5488H3.06226V19.3166Z" fill="white"/>
<path d="M49.7571 14.1887C50.5413 14.1887 51.205 13.5251 51.205 12.7408C51.205 11.9566 50.5413 11.293 49.7571 11.293H32.473C29.0042 11.293 26.9229 14.8222 26.9229 17.8687C26.9229 20.855 28.8835 24.4445 32.1714 24.4445H49.7571C50.5413 24.4445 51.205 23.7809 51.205 22.9966C51.205 22.2124 50.5413 21.5488 49.7571 21.5488H33.1367C30.3616 21.5488 29.7583 19.3166 29.7583 17.8687C29.7583 16.4209 30.3616 14.1887 33.1367 14.1887H49.7571ZM48.4902 16.4209H33.4685C32.6842 16.4209 32.0206 17.0845 32.0206 17.8687C32.0206 18.653 32.6842 19.3166 33.4685 19.3166H48.4902C49.2745 19.3166 49.9381 18.653 49.9381 17.8687C49.9381 17.0845 49.2745 16.4209 48.4902 16.4209Z" fill="white"/>
<path d="M64.0256 14.4904C64.2669 14.1887 64.7193 13.6759 65.1718 13.6759C65.6243 13.6759 66.0767 14.1586 66.3482 14.4904L73.3764 23.8714C73.6479 24.2334 74.0702 24.4445 74.5227 24.4445C75.3069 24.4445 75.9705 23.7809 75.9705 22.9967C75.9705 22.6045 75.7896 22.2425 75.5482 21.9711L68.2184 12.1677C67.5246 11.2327 66.3784 10.6897 65.1718 10.6897C63.8747 10.6897 62.6983 11.3231 62.0046 12.2582L54.6747 22.1219C54.4635 22.3632 54.373 22.6648 54.373 22.9967C54.373 23.7809 55.0367 24.4445 55.8209 24.4445C56.2432 24.4445 56.6655 24.2334 56.937 23.9016L64.0256 14.4904Z" fill="white"/>
<path d="M80.5861 11.293C79.8018 11.293 79.1382 11.9566 79.1382 12.7408C79.1382 13.5251 79.8018 14.1887 80.5861 14.1887H90.4799C89.8464 15.3048 89.5146 16.632 89.5146 17.8687V22.9966C89.5146 23.7809 90.1782 24.4445 90.9625 24.4445C91.7468 24.4445 92.4104 23.7809 92.4104 22.9966V17.8687C92.4104 16.4812 92.9533 14.3094 95.3966 14.1887H101.46C102.184 14.1284 102.787 13.4949 102.787 12.7408C102.787 11.9566 102.123 11.293 101.339 11.293H80.5861Z" fill="white"/>
<path d="M32.6734 30.7662C32.7527 30.6671 32.9015 30.4985 33.0502 30.4985C33.199 30.4985 33.3477 30.6572 33.437 30.7662L35.7476 33.8504C35.8368 33.9694 35.9757 34.0388 36.1244 34.0388C36.3822 34.0388 36.6004 33.8206 36.6004 33.5628C36.6004 33.4339 36.5409 33.3149 36.4616 33.2256L34.0518 30.0026C33.8237 29.6952 33.4469 29.5167 33.0502 29.5167C32.6238 29.5167 32.237 29.725 32.0089 30.0324L29.5992 33.2752C29.5298 33.3545 29.5 33.4537 29.5 33.5628C29.5 33.8206 29.7182 34.0388 29.976 34.0388C30.1148 34.0388 30.2537 33.9694 30.3429 33.8603L32.6734 30.7662Z" fill="#FF5100"/>
<path d="M37.6021 31.7778C37.6021 32.7596 38.2466 33.9397 39.3276 33.9397H45.2082C45.4661 33.9397 45.6842 33.7215 45.6842 33.4637C45.6842 33.2058 45.4661 32.9877 45.2082 32.9877H39.635C38.7226 32.9877 38.5243 32.2538 38.5243 31.7778C38.5243 31.3018 38.7226 30.568 39.635 30.568H45.2082C45.4661 30.568 45.6842 30.3498 45.6842 30.092C45.6842 29.8341 45.4661 29.616 45.2082 29.616H39.4267C38.2863 29.616 37.6021 30.7762 37.6021 31.7778Z" fill="#FF5100"/>
<path d="M47.1616 29.616C46.9037 29.616 46.6855 29.8341 46.6855 30.092C46.6855 30.3498 46.9037 30.568 47.1616 30.568H50.4143C50.206 30.9349 50.0969 31.3712 50.0969 31.7778V33.4637C50.0969 33.7215 50.3151 33.9397 50.5729 33.9397C50.8308 33.9397 51.0489 33.7215 51.0489 33.4637V31.7778C51.0489 31.3217 51.2274 30.6076 52.0307 30.568H54.024C54.262 30.5481 54.4603 30.3399 54.4603 30.092C54.4603 29.8341 54.2421 29.616 53.9843 29.616H47.1616Z" fill="#FF5100"/>
<path d="M56.4139 33.4637V30.092C56.4139 29.8341 56.1958 29.616 55.9379 29.616C55.6801 29.616 55.4619 29.8341 55.4619 30.092V33.4637C55.4619 33.7215 55.6801 33.9397 55.9379 33.9397C56.1958 33.9397 56.4139 33.7215 56.4139 33.4637Z" fill="#FF5100"/>
<path d="M61.3421 32.7893C61.2628 32.8884 61.114 33.057 60.9652 33.057C60.8165 33.057 60.6677 32.8983 60.5785 32.7893L58.2679 29.7051C58.1786 29.5861 58.0398 29.5167 57.891 29.5167C57.6332 29.5167 57.415 29.7349 57.415 29.9927C57.415 30.1216 57.4745 30.2406 57.5539 30.3299L59.9637 33.5529C60.2017 33.8504 60.5686 34.0388 60.9652 34.0388C61.3917 34.0388 61.7685 33.8305 62.0065 33.5231L64.4064 30.2902L64.4163 30.2803C64.4857 30.201 64.5155 30.1018 64.5155 29.9927C64.5155 29.7349 64.2973 29.5167 64.0395 29.5167C63.9006 29.5167 63.7618 29.5861 63.6725 29.6952L61.3421 32.7893Z" fill="#FF5100"/>
<path d="M73.0241 30.568C73.2819 30.568 73.5001 30.3498 73.5001 30.092C73.5001 29.8341 73.2819 29.616 73.0241 29.616H67.3418C66.2013 29.616 65.5171 30.7762 65.5171 31.7778C65.5171 32.7596 66.1617 33.9397 67.2426 33.9397H73.0241C73.2819 33.9397 73.5001 33.7215 73.5001 33.4637C73.5001 33.2058 73.2819 32.9877 73.0241 32.9877H67.5599C66.6476 32.9877 66.4493 32.2538 66.4493 31.7778C66.4493 31.3018 66.6476 30.568 67.5599 30.568H73.0241ZM72.6076 31.3018H67.669C67.4112 31.3018 67.193 31.52 67.193 31.7778C67.193 32.0357 67.4112 32.2538 67.669 32.2538H72.6076C72.8654 32.2538 73.0836 32.0357 73.0836 31.7778C73.0836 31.52 72.8654 31.3018 72.6076 31.3018Z" fill="#FF5100"/>
</svg>
