<svg width="103" height="44" viewBox="0 0 103 44" fill="none" xmlns="http://www.w3.org/2000/svg">
<path d="M1.61487 24.4435H19.6832C21.9153 24.4435 23.7553 22.6639 23.7553 20.4317C23.7553 19.4665 23.3933 18.5615 22.8202 17.8979C23.3933 17.2042 23.7553 16.3294 23.7553 15.334C23.7553 13.1018 21.9153 11.292 19.6832 11.292H1.61487C0.830602 11.292 0.166992 11.9556 0.166992 12.7399V22.9957C0.166992 23.7799 0.830602 24.4435 1.61487 24.4435ZM19.8038 14.1877C20.4071 14.1877 20.9501 14.7307 20.9501 15.334C20.9501 15.9674 20.4373 16.4199 19.834 16.4199H3.06275V14.1877H19.8038ZM3.06275 19.3156H19.8038C20.4071 19.3156 20.9501 19.7983 20.9501 20.4317C20.9501 21.035 20.4071 21.5478 19.8038 21.5478H3.06275V19.3156Z" fill="white"/>
<path d="M49.7571 14.1877C50.5413 14.1877 51.205 13.5241 51.205 12.7399C51.205 11.9556 50.5413 11.292 49.7571 11.292H32.473C29.0042 11.292 26.9229 14.8212 26.9229 17.8678C26.9229 20.854 28.8835 24.4435 32.1714 24.4435H49.7571C50.5413 24.4435 51.205 23.7799 51.205 22.9957C51.205 22.2114 50.5413 21.5478 49.7571 21.5478H33.1367C30.3616 21.5478 29.7583 19.3156 29.7583 17.8678C29.7583 16.4199 30.3616 14.1877 33.1367 14.1877H49.7571ZM48.4902 16.4199H33.4685C32.6842 16.4199 32.0206 17.0835 32.0206 17.8678C32.0206 18.652 32.6842 19.3156 33.4685 19.3156H48.4902C49.2745 19.3156 49.9381 18.652 49.9381 17.8678C49.9381 17.0835 49.2745 16.4199 48.4902 16.4199Z" fill="white"/>
<path d="M64.0256 14.4901C64.2669 14.1885 64.7193 13.6757 65.1718 13.6757C65.6243 13.6757 66.0767 14.1583 66.3482 14.4901L73.3764 23.8712C73.6479 24.2331 74.0702 24.4443 74.5227 24.4443C75.3069 24.4443 75.9705 23.7807 75.9705 22.9964C75.9705 22.6043 75.7896 22.2423 75.5482 21.9708L68.2184 12.1675C67.5246 11.2324 66.3784 10.6895 65.1718 10.6895C63.8747 10.6895 62.6983 11.3229 62.0046 12.258L54.6747 22.1216C54.4635 22.363 54.373 22.6646 54.373 22.9964C54.373 23.7807 55.0367 24.4443 55.8209 24.4443C56.2432 24.4443 56.6655 24.2331 56.937 23.9013L64.0256 14.4901Z" fill="white"/>
<path d="M80.5865 11.292C79.8023 11.292 79.1387 11.9556 79.1387 12.7399C79.1387 13.5241 79.8023 14.1877 80.5865 14.1877H90.4804C89.8469 15.3038 89.5151 16.631 89.5151 17.8678V22.9957C89.5151 23.7799 90.1787 24.4435 90.963 24.4435C91.7473 24.4435 92.4109 23.7799 92.4109 22.9957V17.8678C92.4109 16.4802 92.9538 14.3084 95.3971 14.1877H101.46C102.184 14.1274 102.787 13.494 102.787 12.7399C102.787 11.9556 102.124 11.292 101.339 11.292H80.5865Z" fill="white"/>
<path d="M32.6734 30.7661C32.7527 30.6669 32.9015 30.4984 33.0502 30.4984C33.199 30.4984 33.3477 30.657 33.437 30.7661L35.7476 33.8502C35.8368 33.9692 35.9757 34.0387 36.1244 34.0387C36.3822 34.0387 36.6004 33.8205 36.6004 33.5626C36.6004 33.4337 36.5409 33.3147 36.4616 33.2255L34.0518 30.0025C33.8237 29.6951 33.4469 29.5166 33.0502 29.5166C32.6238 29.5166 32.237 29.7249 32.0089 30.0323L29.5992 33.2751C29.5298 33.3544 29.5 33.4536 29.5 33.5626C29.5 33.8205 29.7182 34.0387 29.976 34.0387C30.1148 34.0387 30.2537 33.9692 30.3429 33.8602L32.6734 30.7661Z" fill="#FF5100"/>
<path d="M37.6016 31.7771C37.6016 32.7589 38.2462 33.939 39.3271 33.939H45.2077C45.4656 33.939 45.6837 33.7208 45.6837 33.4629C45.6837 33.2051 45.4656 32.9869 45.2077 32.9869H39.6345C38.7222 32.9869 38.5238 32.2531 38.5238 31.7771C38.5238 31.3011 38.7222 30.5672 39.6345 30.5672H45.2077C45.4656 30.5672 45.6837 30.3491 45.6837 30.0912C45.6837 29.8334 45.4656 29.6152 45.2077 29.6152H39.4263C38.2858 29.6152 37.6016 30.7755 37.6016 31.7771Z" fill="#FF5100"/>
<path d="M47.1616 29.6152C46.9037 29.6152 46.6855 29.8334 46.6855 30.0912C46.6855 30.3491 46.9037 30.5672 47.1616 30.5672H50.4143C50.206 30.9342 50.0969 31.3705 50.0969 31.7771V33.4629C50.0969 33.7208 50.3151 33.939 50.5729 33.939C50.8308 33.939 51.0489 33.7208 51.0489 33.4629V31.7771C51.0489 31.3209 51.2274 30.6069 52.0307 30.5672H54.024C54.262 30.5474 54.4603 30.3392 54.4603 30.0912C54.4603 29.8334 54.2421 29.6152 53.9843 29.6152H47.1616Z" fill="#FF5100"/>
<path d="M56.4139 33.4629V30.0912C56.4139 29.8334 56.1958 29.6152 55.9379 29.6152C55.6801 29.6152 55.4619 29.8334 55.4619 30.0912V33.4629C55.4619 33.7208 55.6801 33.939 55.9379 33.939C56.1958 33.939 56.4139 33.7208 56.4139 33.4629Z" fill="#FF5100"/>
<path d="M61.3421 32.7891C61.2628 32.8883 61.114 33.0569 60.9652 33.0569C60.8165 33.0569 60.6677 32.8982 60.5785 32.7891L58.2679 29.705C58.1786 29.586 58.0398 29.5166 57.891 29.5166C57.6332 29.5166 57.415 29.7348 57.415 29.9926C57.415 30.1215 57.4745 30.2405 57.5539 30.3298L59.9637 33.5527C60.2017 33.8502 60.5686 34.0387 60.9652 34.0387C61.3917 34.0387 61.7685 33.8304 62.0065 33.523L64.4064 30.2901L64.4163 30.2802C64.4857 30.2009 64.5155 30.1017 64.5155 29.9926C64.5155 29.7348 64.2973 29.5166 64.0395 29.5166C63.9006 29.5166 63.7618 29.586 63.6725 29.6951L61.3421 32.7891Z" fill="#FF5100"/>
<path d="M73.0236 30.5672C73.2814 30.5672 73.4996 30.3491 73.4996 30.0912C73.4996 29.8334 73.2814 29.6152 73.0236 29.6152H67.3413C66.2009 29.6152 65.5166 30.7755 65.5166 31.7771C65.5166 32.7589 66.1612 33.939 67.2421 33.939H73.0236C73.2814 33.939 73.4996 33.7208 73.4996 33.4629C73.4996 33.2051 73.2814 32.9869 73.0236 32.9869H67.5595C66.6471 32.9869 66.4488 32.2531 66.4488 31.7771C66.4488 31.3011 66.6471 30.5672 67.5595 30.5672H73.0236ZM72.6071 31.3011H67.6685C67.4107 31.3011 67.1925 31.5193 67.1925 31.7771C67.1925 32.0349 67.4107 32.2531 67.6685 32.2531H72.6071C72.8649 32.2531 73.0831 32.0349 73.0831 31.7771C73.0831 31.5193 72.8649 31.3011 72.6071 31.3011Z" fill="#FF5100"/>
</svg>
