<svg width="132" height="44" viewBox="0 0 132 44" fill="none" xmlns="http://www.w3.org/2000/svg">
<path d="M16.1144 24.4445H34.1827C36.4148 24.4445 38.2548 22.6648 38.2548 20.4327C38.2548 19.4674 37.8929 18.5625 37.3197 17.8989C37.8929 17.2051 38.2548 16.3304 38.2548 15.335C38.2548 13.1028 36.4148 11.293 34.1827 11.293H16.1144C15.3301 11.293 14.6665 11.9566 14.6665 12.7408V22.9966C14.6665 23.7809 15.3301 24.4445 16.1144 24.4445ZM34.3033 14.1887C34.9066 14.1887 35.4496 14.7317 35.4496 15.335C35.4496 15.9684 34.9368 16.4209 34.3335 16.4209H17.5623V14.1887H34.3033ZM17.5623 19.3166H34.3033C34.9066 19.3166 35.4496 19.7992 35.4496 20.4327C35.4496 21.036 34.9066 21.5488 34.3033 21.5488H17.5623V19.3166Z" fill="#1A1A1A"/>
<path d="M64.2571 14.1887C65.0413 14.1887 65.705 13.5251 65.705 12.7408C65.705 11.9566 65.0413 11.293 64.2571 11.293H46.973C43.5042 11.293 41.4229 14.8222 41.4229 17.8687C41.4229 20.855 43.3835 24.4445 46.6714 24.4445H64.2571C65.0413 24.4445 65.705 23.7809 65.705 22.9966C65.705 22.2124 65.0413 21.5488 64.2571 21.5488H47.6367C44.8616 21.5488 44.2583 19.3166 44.2583 17.8687C44.2583 16.4209 44.8616 14.1887 47.6367 14.1887H64.2571ZM62.9902 16.4209H47.9685C47.1842 16.4209 46.5206 17.0845 46.5206 17.8687C46.5206 18.653 47.1842 19.3166 47.9685 19.3166H62.9902C63.7745 19.3166 64.4381 18.653 64.4381 17.8687C64.4381 17.0845 63.7745 16.4209 62.9902 16.4209Z" fill="#1A1A1A"/>
<path d="M78.5256 14.4904C78.7669 14.1887 79.2193 13.6759 79.6718 13.6759C80.1243 13.6759 80.5767 14.1586 80.8482 14.4904L87.8764 23.8714C88.1479 24.2334 88.5702 24.4445 89.0227 24.4445C89.8069 24.4445 90.4705 23.7809 90.4705 22.9967C90.4705 22.6045 90.2896 22.2425 90.0482 21.9711L82.7184 12.1677C82.0246 11.2327 80.8784 10.6897 79.6718 10.6897C78.3747 10.6897 77.1983 11.3231 76.5046 12.2582L69.1747 22.1219C68.9635 22.3632 68.873 22.6648 68.873 22.9967C68.873 23.7809 69.5367 24.4445 70.3209 24.4445C70.7432 24.4445 71.1655 24.2334 71.437 23.9016L78.5256 14.4904Z" fill="#1A1A1A"/>
<path d="M95.0861 11.293C94.3018 11.293 93.6382 11.9566 93.6382 12.7408C93.6382 13.5251 94.3018 14.1887 95.0861 14.1887H104.98C104.346 15.3048 104.015 16.632 104.015 17.8687V22.9966C104.015 23.7809 104.678 24.4445 105.463 24.4445C106.247 24.4445 106.91 23.7809 106.91 22.9966V17.8687C106.91 16.4812 107.453 14.3094 109.897 14.1887H115.96C116.684 14.1284 117.287 13.4949 117.287 12.7408C117.287 11.9566 116.623 11.293 115.839 11.293H95.0861Z" fill="#1A1A1A"/>
<path d="M47.1734 30.7659C47.2527 30.6667 47.4015 30.4981 47.5502 30.4981C47.699 30.4981 47.8477 30.6568 47.937 30.7659L50.2476 33.85C50.3368 33.969 50.4757 34.0384 50.6244 34.0384C50.8822 34.0384 51.1004 33.8202 51.1004 33.5624C51.1004 33.4335 51.0409 33.3145 50.9616 33.2252L48.5518 30.0023C48.3237 29.6949 47.9469 29.5164 47.5502 29.5164C47.1238 29.5164 46.737 29.7246 46.5089 30.032L44.0992 33.2748C44.0298 33.3542 44 33.4533 44 33.5624C44 33.8202 44.2182 34.0384 44.476 34.0384C44.6148 34.0384 44.7537 33.969 44.8429 33.8599L47.1734 30.7659Z" fill="#FF5100"/>
<path d="M52.1021 31.7773C52.1021 32.7591 52.7466 33.9392 53.8276 33.9392H59.7082C59.9661 33.9392 60.1842 33.721 60.1842 33.4632C60.1842 33.2054 59.9661 32.9872 59.7082 32.9872H54.135C53.2226 32.9872 53.0243 32.2533 53.0243 31.7773C53.0243 31.3013 53.2226 30.5675 54.135 30.5675H59.7082C59.9661 30.5675 60.1842 30.3493 60.1842 30.0915C60.1842 29.8336 59.9661 29.6155 59.7082 29.6155H53.9267C52.7863 29.6155 52.1021 30.7757 52.1021 31.7773Z" fill="#FF5100"/>
<path d="M61.6616 29.6155C61.4037 29.6155 61.1855 29.8336 61.1855 30.0915C61.1855 30.3493 61.4037 30.5675 61.6616 30.5675H64.9143C64.706 30.9344 64.5969 31.3707 64.5969 31.7773V33.4632C64.5969 33.721 64.8151 33.9392 65.0729 33.9392C65.3308 33.9392 65.5489 33.721 65.5489 33.4632V31.7773C65.5489 31.3212 65.7274 30.6072 66.5307 30.5675H68.524C68.762 30.5477 68.9603 30.3394 68.9603 30.0915C68.9603 29.8336 68.7421 29.6155 68.4843 29.6155H61.6616Z" fill="#FF5100"/>
<path d="M70.9139 33.4632V30.0915C70.9139 29.8336 70.6958 29.6155 70.4379 29.6155C70.1801 29.6155 69.9619 29.8336 69.9619 30.0915V33.4632C69.9619 33.721 70.1801 33.9392 70.4379 33.9392C70.6958 33.9392 70.9139 33.721 70.9139 33.4632Z" fill="#FF5100"/>
<path d="M75.8421 32.7889C75.7628 32.8881 75.614 33.0566 75.4652 33.0566C75.3165 33.0566 75.1677 32.898 75.0785 32.7889L72.7679 29.7048C72.6786 29.5858 72.5398 29.5164 72.391 29.5164C72.1332 29.5164 71.915 29.7345 71.915 29.9924C71.915 30.1213 71.9745 30.2403 72.0539 30.3295L74.4637 33.5525C74.7017 33.85 75.0686 34.0384 75.4652 34.0384C75.8917 34.0384 76.2685 33.8302 76.5065 33.5227L78.9064 30.2899L78.9163 30.2799C78.9857 30.2006 79.0155 30.1014 79.0155 29.9924C79.0155 29.7345 78.7973 29.5164 78.5395 29.5164C78.4006 29.5164 78.2618 29.5858 78.1725 29.6949L75.8421 32.7889Z" fill="#FF5100"/>
<path d="M87.5241 30.5675C87.7819 30.5675 88.0001 30.3493 88.0001 30.0915C88.0001 29.8336 87.7819 29.6155 87.5241 29.6155H81.8418C80.7013 29.6155 80.0171 30.7757 80.0171 31.7773C80.0171 32.7591 80.6617 33.9392 81.7426 33.9392H87.5241C87.7819 33.9392 88.0001 33.721 88.0001 33.4632C88.0001 33.2054 87.7819 32.9872 87.5241 32.9872H82.0599C81.1476 32.9872 80.9493 32.2533 80.9493 31.7773C80.9493 31.3013 81.1476 30.5675 82.0599 30.5675H87.5241ZM87.1076 31.3013H82.169C81.9112 31.3013 81.693 31.5195 81.693 31.7773C81.693 32.0352 81.9112 32.2533 82.169 32.2533H87.1076C87.3654 32.2533 87.5836 32.0352 87.5836 31.7773C87.5836 31.5195 87.3654 31.3013 87.1076 31.3013Z" fill="#FF5100"/>
</svg>
