<svg width="2151" height="365" viewBox="0 0 2151 365" fill="none" xmlns="http://www.w3.org/2000/svg">
<g opacity="0.7" filter="url(#filter0_d_0_1)">
<path d="M-9 183.149H67.8762C68.7342 183.149 69.4966 183.697 69.7711 184.509L83.265 224.47C83.8774 226.283 86.4424 226.283 87.0548 224.47L100.549 184.509C100.823 183.697 101.586 183.149 102.444 183.149H132.285C133.282 183.149 134.128 182.414 134.266 181.426L155.355 30.4754C155.685 28.1168 159.122 28.206 159.329 30.5785L181.985 290.6C182.188 292.925 185.532 293.078 185.946 290.781L205.045 184.795C205.217 183.842 206.045 183.149 207.013 183.149H224.939C225.844 183.149 226.636 182.542 226.871 181.669L240.389 131.451C240.92 129.478 243.72 129.478 244.252 131.451L257.77 181.669C258.005 182.542 258.797 183.149 259.701 183.149H409.674C410.651 183.149 411.485 182.443 411.647 181.48L431.924 60.5357C432.322 58.1623 435.801 58.384 435.895 60.7886L445.15 298.73C445.24 301.048 448.541 301.38 449.091 299.127L477.028 184.675C477.247 183.779 478.049 183.149 478.971 183.149H515.344C516.314 183.149 517.144 182.453 517.313 181.498L538.942 59.2811C539.359 56.9279 542.805 57.1547 542.91 59.5422L553.407 299.446C553.508 301.746 556.776 302.083 557.343 299.851L586.633 184.658C586.859 183.771 587.658 183.15 588.573 183.15L1057 183.5" stroke="#FF5100"/>
</g>
<g opacity="0.7" filter="url(#filter1_d_0_1)">
<path d="M2122.91 179.85L1670.05 181.299C1669.2 181.302 1668.43 180.757 1668.15 179.945L1654.53 140.028C1653.91 138.216 1651.35 138.224 1650.74 140.04L1637.38 180.043C1637.1 180.857 1636.34 181.407 1635.49 181.409L1605.64 181.505C1604.65 181.508 1603.8 182.246 1603.67 183.234L1583.06 334.252C1582.74 336.611 1579.3 336.533 1579.09 334.161L1555.6 74.214C1555.39 71.8889 1552.05 71.7466 1551.64 74.0455L1532.88 180.092C1532.71 181.045 1531.88 181.741 1530.92 181.744L1512.99 181.801C1512.09 181.804 1511.3 182.414 1511.06 183.288L1497.71 233.549C1497.18 235.524 1494.38 235.533 1493.84 233.561L1480.17 183.386C1479.93 182.514 1479.13 181.91 1478.23 181.912L1328.26 182.392C1327.28 182.395 1326.45 183.104 1326.29 184.068L1306.4 305.076C1306.01 307.451 1302.53 307.241 1302.43 304.836L1292.41 66.9254C1292.31 64.6082 1289.01 64.2867 1288.47 66.5415L1260.9 181.082C1260.68 181.978 1259.88 182.611 1258.96 182.614L1222.59 182.73C1221.62 182.733 1220.79 183.432 1220.62 184.388L1199.39 306.673C1198.98 309.028 1195.53 308.812 1195.42 306.425L1184.15 66.5562C1184.04 64.2564 1180.78 63.9302 1180.22 66.1634L1151.29 181.455C1151.07 182.341 1150.28 182.963 1149.36 182.969L1057 183.5" stroke="#FF5100"/>
</g>
<defs>
<filter id="filter0_d_0_1" x="-37" y="0.252075" width="1122" height="329.607" filterUnits="userSpaceOnUse" color-interpolation-filters="sRGB">
<feFlood flood-opacity="0" result="BackgroundImageFix"/>
<feColorMatrix in="SourceAlpha" type="matrix" values="0 0 0 0 0 0 0 0 0 0 0 0 0 0 0 0 0 0 127 0" result="hardAlpha"/>
<feOffset/>
<feGaussianBlur stdDeviation="14"/>
<feComposite in2="hardAlpha" operator="out"/>
<feColorMatrix type="matrix" values="0 0 0 0 1 0 0 0 0 0.317647 0 0 0 0 0 0 0 0 1 0"/>
<feBlend mode="normal" in2="BackgroundImageFix" result="effect1_dropShadow_0_1"/>
<feBlend mode="normal" in="SourceGraphic" in2="effect1_dropShadow_0_1" result="shape"/>
</filter>
<filter id="filter1_d_0_1" x="1029" y="36.149" width="1121.91" height="328.332" filterUnits="userSpaceOnUse" color-interpolation-filters="sRGB">
<feFlood flood-opacity="0" result="BackgroundImageFix"/>
<feColorMatrix in="SourceAlpha" type="matrix" values="0 0 0 0 0 0 0 0 0 0 0 0 0 0 0 0 0 0 127 0" result="hardAlpha"/>
<feOffset/>
<feGaussianBlur stdDeviation="14"/>
<feComposite in2="hardAlpha" operator="out"/>
<feColorMatrix type="matrix" values="0 0 0 0 1 0 0 0 0 0.317647 0 0 0 0 0 0 0 0 1 0"/>
<feBlend mode="normal" in2="BackgroundImageFix" result="effect1_dropShadow_0_1"/>
<feBlend mode="normal" in="SourceGraphic" in2="effect1_dropShadow_0_1" result="shape"/>
</filter>
</defs>
</svg>
