<svg width="752" height="79" viewBox="0 0 752 79" fill="none" xmlns="http://www.w3.org/2000/svg">
<path d="M54.2358 22.2123C55.5917 20.5175 58.134 17.6362 60.6763 17.6362C63.2186 17.6362 65.7609 20.348 67.2863 22.2123L106.777 74.9227C108.302 76.9566 110.675 78.143 113.217 78.143C117.624 78.143 121.353 74.4143 121.353 70.0076C121.353 67.8043 120.336 65.7705 118.98 64.2451L77.7944 9.16185C73.8963 3.90776 67.4557 0.856995 60.6763 0.856995C53.3883 0.856995 46.7784 4.41623 42.8802 9.67032L1.69487 65.0925C0.50846 66.4484 0 68.1433 0 70.0076C0 74.4143 3.72871 78.143 8.13537 78.143C10.5082 78.143 12.881 76.9566 14.4064 75.0922L54.2358 22.2123Z" fill="#B3B3B3"/>
<path d="M138.468 39.5C138.468 56.2792 149.485 76.4481 167.959 76.4481H268.465C272.871 76.4481 276.6 72.7194 276.6 68.3128C276.6 63.9061 272.871 60.1774 268.465 60.1774H173.213C157.62 60.1774 154.23 47.6354 154.23 39.5C154.23 31.3646 157.62 18.8226 173.213 18.8226H268.465C272.871 18.8226 276.6 15.0939 276.6 10.6872C276.6 6.28059 272.871 2.55188 268.465 2.55188H169.654C150.163 2.55188 138.468 22.3818 138.468 39.5Z" fill="#B3B3B3"/>
<path d="M301.851 2.55188C297.444 2.55188 293.715 6.28059 293.715 10.6872C293.715 15.0939 297.444 18.8226 301.851 18.8226H357.443C353.883 25.0936 352.019 32.5511 352.019 39.5V68.3128C352.019 72.7194 355.748 76.4481 360.154 76.4481C364.561 76.4481 368.29 72.7194 368.29 68.3128V39.5C368.29 31.7036 371.34 19.5006 385.069 18.8226H419.136C423.203 18.4836 426.593 14.9244 426.593 10.6872C426.593 6.28059 422.864 2.55188 418.458 2.55188H301.851Z" fill="#B3B3B3"/>
<path d="M459.979 68.3128V10.6872C459.979 6.28059 456.251 2.55188 451.844 2.55188C447.437 2.55188 443.709 6.28059 443.709 10.6872V68.3128C443.709 72.7194 447.437 76.4481 451.844 76.4481C456.251 76.4481 459.979 72.7194 459.979 68.3128Z" fill="#B3B3B3"/>
<path d="M544.212 56.7877C542.856 58.4825 540.314 61.3638 537.771 61.3638C535.229 61.3638 532.687 58.652 531.161 56.7877L491.671 4.07725C490.145 2.0434 487.773 0.856995 485.23 0.856995C480.824 0.856995 477.095 4.5857 477.095 8.99236C477.095 11.1957 478.112 13.2295 479.468 14.7549L520.653 69.8381C524.721 74.9227 530.992 78.143 537.771 78.143C545.059 78.143 551.5 74.5838 555.567 69.3297L596.583 14.077L596.753 13.9075C597.939 12.5516 598.448 10.8567 598.448 8.99236C598.448 4.5857 594.719 0.856995 590.312 0.856995C587.939 0.856995 585.567 2.04339 584.041 3.90775L544.212 56.7877Z" fill="#B3B3B3"/>
<path d="M743.865 18.8226C748.271 18.8226 752 15.0939 752 10.6872C752 6.28059 748.271 2.55188 743.865 2.55188H646.749C627.258 2.55188 615.563 22.3818 615.563 39.5C615.563 56.2792 626.58 76.4481 645.054 76.4481H743.865C748.271 76.4481 752 72.7194 752 68.3128C752 63.9061 748.271 60.1774 743.865 60.1774H650.477C634.885 60.1774 631.495 47.6354 631.495 39.5C631.495 31.3646 634.885 18.8226 650.477 18.8226H743.865ZM736.746 31.3646H652.342C647.935 31.3646 644.206 35.0934 644.206 39.5C644.206 43.9067 647.935 47.6354 652.342 47.6354H736.746C741.153 47.6354 744.882 43.9067 744.882 39.5C744.882 35.0934 741.153 31.3646 736.746 31.3646Z" fill="#B3B3B3"/>
</svg>
