<svg width="752" height="101" viewBox="0 0 752 101" fill="none" xmlns="http://www.w3.org/2000/svg">
<path d="M10.6052 101H142.95C159.299 101 172.777 87.9644 172.777 71.6147C172.777 64.5445 170.126 57.9163 165.928 53.0555C170.126 47.9739 172.777 41.5665 172.777 34.2754C172.777 17.9257 159.299 4.66919 142.95 4.66919H10.6052C4.86073 4.66919 0 9.52992 0 15.2744V90.3948C0 96.1393 4.86073 101 10.6052 101ZM143.833 25.8797C148.252 25.8797 152.229 29.8566 152.229 34.2754C152.229 38.9152 148.473 42.2294 144.054 42.2294H21.2105V25.8797H143.833ZM21.2105 63.4398H143.833C148.252 63.4398 152.229 66.9749 152.229 71.6147C152.229 76.0335 148.252 79.7896 143.833 79.7896H21.2105V63.4398Z" fill="#E6E6E6"/>
<path d="M363.234 25.8797C368.979 25.8797 373.84 21.0189 373.84 15.2744C373.84 9.52992 368.979 4.66919 363.234 4.66919H236.634C211.226 4.66919 195.981 30.5194 195.981 52.8346C195.981 74.7079 210.342 101 234.425 101H363.234C368.979 101 373.84 96.1393 373.84 90.3948C373.84 84.6503 368.979 79.7896 363.234 79.7896H241.495C221.168 79.7896 216.75 63.4398 216.75 52.8346C216.75 42.2294 221.168 25.8797 241.495 25.8797H363.234ZM353.955 42.2294H243.926C238.181 42.2294 233.32 47.0901 233.32 52.8346C233.32 58.5791 238.181 63.4398 243.926 63.4398H353.955C359.699 63.4398 364.56 58.5791 364.56 52.8346C364.56 47.0901 359.699 42.2294 353.955 42.2294Z" fill="#E6E6E6"/>
<path d="M467.745 28.0891C469.513 25.8797 472.827 22.1237 476.141 22.1237C479.455 22.1237 482.769 25.6587 484.758 28.0891L536.237 96.8021C538.226 99.4534 541.319 101 544.633 101C550.378 101 555.238 96.1393 555.238 90.3948C555.238 87.5226 553.913 84.8713 552.145 82.8828L498.456 11.0765C493.375 4.22733 484.979 0.250366 476.141 0.250366C466.641 0.250366 458.024 4.89016 452.942 11.7394L399.253 83.9875C397.707 85.755 397.044 87.9645 397.044 90.3948C397.044 96.1393 401.905 101 407.649 101C410.742 101 413.835 99.4535 415.824 97.0231L467.745 28.0891Z" fill="#E6E6E6"/>
<path d="M589.048 4.66919C583.303 4.66919 578.443 9.52992 578.443 15.2744C578.443 21.0189 583.303 25.8797 589.048 25.8797H661.517C656.877 34.0545 654.447 43.776 654.447 52.8346V90.3948C654.447 96.1393 659.308 101 665.052 101C670.797 101 675.657 96.1393 675.657 90.3948V52.8346C675.657 42.6713 679.634 26.7634 697.531 25.8797H741.94C747.243 25.4378 751.661 20.798 751.661 15.2744C751.661 9.52992 746.801 4.66919 741.056 4.66919H589.048Z" fill="#E6E6E6"/>
</svg>
