<svg width="14" height="14" viewBox="0 0 14 14" fill="none" xmlns="http://www.w3.org/2000/svg">
<path d="M13.3631 13.364C13.7536 12.9734 13.7536 12.3403 13.3631 11.9497L8.41403 7.00068L13.3645 2.05025C13.755 1.65973 13.755 1.02656 13.3645 0.636036C12.9739 0.245511 12.3408 0.245511 11.9502 0.636035L6.99982 5.58646L2.04939 0.636033C1.65887 0.245509 1.0257 0.245509 0.635178 0.636033C0.244654 1.02656 0.244654 1.65972 0.635178 2.05025L5.58561 7.00067L0.636536 11.9497C0.246012 12.3403 0.246013 12.9734 0.636537 13.364C1.02706 13.7545 1.66023 13.7545 2.05075 13.364L6.99982 8.41489L11.9489 13.364C12.3394 13.7545 12.9726 13.7545 13.3631 13.364Z" fill="white"/>
</svg>
