<svg width="48" height="48" viewBox="0 0 48 48" fill="none" xmlns="http://www.w3.org/2000/svg">
<path d="M3.69539 12.2771L24 0.554256L44.3046 12.2771V35.7229L24 47.4457L3.69539 35.7229V12.2771Z" fill="#1A1A1A" stroke="#CCCCCC" stroke-width="0.96"/>
<path d="M26.2929 28.2929C25.9024 28.6834 25.9024 29.3166 26.2929 29.7071C26.6834 30.0976 27.3166 30.0976 27.7071 29.7071L32.7071 24.7071C33.0976 24.3166 33.0976 23.6834 32.7071 23.2929L27.7071 18.2929C27.3166 17.9024 26.6834 17.9024 26.2929 18.2929C25.9024 18.6834 25.9024 19.3166 26.2929 19.7071L29.5858 23L15.9444 23C15.4228 23 15 23.4477 15 24C15 24.5523 15.4228 25 15.9444 25L29.5858 25L26.2929 28.2929Z" fill="white"/>
</svg>
