<svg width="48" height="48" viewBox="0 0 48 48" fill="none" xmlns="http://www.w3.org/2000/svg">
<path d="M3.69539 12.2771L24 0.554256L44.3046 12.2771V35.7229L24 47.4457L3.69539 35.7229V12.2771Z" fill="#1A1A1A" stroke="#CCCCCC" stroke-width="0.96"/>
<path d="M21.7071 29.2929C22.0976 29.6834 22.0976 30.3166 21.7071 30.7071C21.3166 31.0976 20.6834 31.0976 20.2929 30.7071L15.2929 25.7071C14.9024 25.3166 14.9024 24.6834 15.2929 24.2929L20.2929 19.2929C20.6834 18.9024 21.3166 18.9024 21.7071 19.2929C22.0976 19.6834 22.0976 20.3166 21.7071 20.7071L18.4142 24L32.0556 24C32.5772 24 33 24.4477 33 25C33 25.5523 32.5772 26 32.0556 26L18.4142 26L21.7071 29.2929Z" fill="white"/>
</svg>
