<svg width="189" height="189" viewBox="0 0 189 189" fill="none" xmlns="http://www.w3.org/2000/svg">
<g clip-path="url(#clip0_207_1127)">
<path d="M94.5 189C146.691 189 189 146.691 189 94.5C189 42.3091 146.691 0 94.5 0C42.3091 0 0 42.3091 0 94.5C0 146.691 42.3091 189 94.5 189Z" fill="#F0F0F0"/>
<path d="M19.5353 36.9663C12.1123 46.6241 6.515 57.7556 3.25586 69.8482H52.4173L19.5353 36.9663Z" fill="#012169"/>
<path d="M185.745 69.8484C182.486 57.7561 176.888 46.6246 169.465 36.9668L136.584 69.8484H185.745Z" fill="#012169"/>
<path d="M3.25586 119.153C6.51537 131.245 12.1126 142.377 19.5353 152.034L52.4162 119.153H3.25586Z" fill="#012169"/>
<path d="M152.034 19.5352C142.376 12.1122 131.245 6.51488 119.152 3.25537V52.4164L152.034 19.5352Z" fill="#012169"/>
<path d="M36.9668 169.465C46.6246 176.888 57.7561 182.485 69.8484 185.745V136.584L36.9668 169.465Z" fill="#012169"/>
<path d="M69.848 3.25537C57.7557 6.51488 46.6243 12.1122 36.9668 19.5348L69.848 52.416V3.25537Z" fill="#012169"/>
<path d="M119.152 185.745C131.245 182.485 142.376 176.888 152.034 169.465L119.152 136.584V185.745Z" fill="#012169"/>
<path d="M136.584 119.153L169.465 152.034C176.888 142.377 182.486 131.245 185.745 119.153H136.584Z" fill="#012169"/>
<path d="M188.2 82.174H106.827H106.826V0.799928C102.791 0.274641 98.6776 0 94.5 0C90.3217 0 86.2087 0.274641 82.174 0.799928V82.1733V82.1737H0.799928C0.274641 86.2087 0 90.3224 0 94.5C0 98.6783 0.274641 102.791 0.799928 106.826H82.1733H82.1737V188.2C86.2087 188.725 90.3217 189 94.5 189C98.6776 189 102.791 188.726 106.826 188.2V106.827V106.826H188.2C188.725 102.791 189 98.6783 189 94.5C189 90.3224 188.725 86.2087 188.2 82.174Z" fill="#D80027"/>
<path d="M119.152 119.153L161.322 161.322C163.261 159.383 165.111 157.356 166.876 155.255L130.774 119.152H119.152V119.153Z" fill="#D80027"/>
<path d="M69.8472 119.153H69.8465L27.6777 161.322C29.6165 163.261 31.6434 165.111 33.7446 166.876L69.8472 130.773V119.153Z" fill="#D80027"/>
<path d="M69.847 69.8485V69.8477L27.6779 27.6782C25.7384 29.6169 23.8883 31.6439 22.123 33.745L58.2261 69.8481L69.847 69.8485Z" fill="#D80027"/>
<path d="M119.152 69.8484L161.322 27.6785C159.383 25.739 157.356 23.8889 155.255 22.124L119.152 58.2271V69.8484Z" fill="#D80027"/>
</g>
<defs>
<clipPath id="clip0_207_1127">
<rect width="189" height="189" fill="white"/>
</clipPath>
</defs>
</svg>
