<svg width="30" height="30" viewBox="0 0 30 30" fill="none" xmlns="http://www.w3.org/2000/svg">
<g clip-path="url(#clip0_635_10263)">
<circle cx="15.0003" cy="15" r="14.1429" fill="#F2F0F2"/>
<mask id="mask0_635_10263" style="mask-type:alpha" maskUnits="userSpaceOnUse" x="0" y="0" width="30" height="30">
<circle cx="15.0003" cy="15" r="14.1429" fill="#FCFCFC"/>
</mask>
<g mask="url(#mask0_635_10263)">
<rect x="5.45361" y="25.9609" width="19.4464" height="3.53571" fill="#D90026"/>
<rect x="5.45361" y="25.9609" width="19.4464" height="3.53571" fill="#D90026"/>
<rect x="1.21094" y="18.8894" width="27.9321" height="3.53571" fill="#D90026"/>
<rect x="1.21094" y="18.8894" width="27.9321" height="3.53571" fill="#D90026"/>
<rect x="1.21094" y="11.4641" width="27.9321" height="3.53571" fill="#D90026"/>
<rect x="1.21094" y="11.4641" width="27.9321" height="3.53571" fill="#D90026"/>
<rect x="1.21094" y="4.39282" width="27.9321" height="3.53571" fill="#D90026"/>
<rect x="1.21094" y="4.39282" width="27.9321" height="3.53571" fill="#D90026"/>
<rect x="0.857422" y="0.857178" width="14.4964" height="14.1429" fill="#0052B5"/>
<path d="M12.5241 12.7023L11.4634 13.2326L11.817 12.1719L11.1099 11.4648H12.1706L12.5241 10.4041L13.0545 11.4648H13.9384L13.2313 12.1719L13.5849 13.2326L12.5241 12.7023Z" fill="#EFEFEF"/>
<path d="M7.57493 12.7023L6.51422 13.2326L6.86779 12.1719L6.16064 11.4648H7.22136L7.57493 10.4041L8.10529 11.4648H8.98922L8.28207 12.1719L8.63564 13.2326L7.57493 12.7023Z" fill="#EFEFEF"/>
<path d="M2.62522 12.7023L1.56451 13.2326L1.91808 12.1719L1.21094 11.4648H2.27165L2.62522 10.4041L3.15558 11.4648H4.03951L3.33237 12.1719L3.68594 13.2326L2.62522 12.7023Z" fill="#EFEFEF"/>
<path d="M12.5241 8.81262L11.4634 9.34298L11.817 8.28226L11.1099 7.57512H12.1706L12.5241 6.5144L13.0545 7.57512H13.9384L13.2313 8.28226L13.5849 9.34298L12.5241 8.81262Z" fill="#EFEFEF"/>
<path d="M12.5241 4.92321L11.4634 5.45357L11.817 4.39286L11.1099 3.68571H12.1706L12.5241 2.625L13.0545 3.68571H13.9384L13.2313 4.39286L13.5849 5.45357L12.5241 4.92321Z" fill="#EFEFEF"/>
<path d="M12.5241 1.03381L11.4634 1.56417L11.817 0.503453L11.1099 -0.20369H12.1706L12.5241 -1.2644L13.0545 -0.20369H13.9384L13.2313 0.503453L13.5849 1.56417L12.5241 1.03381Z" fill="#EFEFEF"/>
<path d="M7.57493 4.92321L6.51422 5.45357L6.86779 4.39286L6.16064 3.68571H7.22136L7.57493 2.625L8.10529 3.68571H8.98922L8.28207 4.39286L8.63564 5.45357L7.57493 4.92321Z" fill="#EFEFEF"/>
<path d="M7.57493 8.81262L6.51422 9.34298L6.86779 8.28226L6.16064 7.57512H7.22136L7.57493 6.5144L8.10529 7.57512H8.98922L8.28207 8.28226L8.63564 9.34298L7.57493 8.81262Z" fill="#EFEFEF"/>
<path d="M2.62522 8.81262L1.56451 9.34298L1.91808 8.28226L1.21094 7.57512H2.27165L2.62522 6.5144L3.15558 7.57512H4.03951L3.33237 8.28226L3.68594 9.34298L2.62522 8.81262Z" fill="#EFEFEF"/>
</g>
</g>
<defs>
<clipPath id="clip0_635_10263">
<rect width="28.2857" height="28.2857" fill="white" transform="translate(0.857422 0.857178)"/>
</clipPath>
</defs>
</svg>
