<svg width="22" height="22" viewBox="0 0 22 22" fill="none" xmlns="http://www.w3.org/2000/svg">
<path d="M11 22C4.92487 22 -2.65552e-07 17.0751 0 11C2.65553e-07 4.92487 4.92487 -2.65552e-07 11 0C17.0751 2.65553e-07 22 4.92487 22 11C22 17.0751 17.0751 22 11 22Z" fill="#D90026"/>
<path d="M12.629 6.87406L11.5478 6.75762L12.3462 6.11443L12.1511 5.2184L12.9695 5.74404L13.7679 5.10085L13.6515 6.18207L14.3335 6.6201L13.4374 6.81528L13.1846 7.8089L12.629 6.87406Z" fill="#FFDB44"/>
<path d="M6.05 12.9594L3.36875 14.3L4.2625 11.6188L2.475 9.83125H5.15625L6.05 7.15L7.39063 9.83125H9.625L7.8375 11.6188L8.73125 14.3L6.05 12.9594Z" fill="#FFDB44"/>
<path d="M12.629 15.1351L11.5478 15.2515L12.3462 15.8947L12.1511 16.7907L12.9695 16.2651L13.7679 16.9083L13.6515 15.827L14.3335 15.389L13.4374 15.1938L13.1846 14.2002L12.629 15.1351Z" fill="#FFDB44"/>
<path d="M15.2389 9.7819L14.2362 9.36085L15.1854 8.97311L15.2548 8.05871L15.8885 8.79661L16.8377 8.40887L16.4166 9.41152L16.9447 10.0264L16.0303 9.95698L15.5036 10.8366L15.2389 9.7819Z" fill="#FFDB44"/>
<path d="M15.2389 12.8507L14.2362 13.2718L15.1854 13.6595L15.2548 14.5739L15.8885 13.836L16.8377 14.2237L16.4166 13.2211L16.9447 12.6062L16.0303 12.6756L15.5036 11.796L15.2389 12.8507Z" fill="#FFDB44"/>
</svg>
