<svg width="30" height="30" viewBox="0 0 30 30" fill="none" xmlns="http://www.w3.org/2000/svg">
<circle cx="15" cy="15" r="15" fill="white"/>
<path fill-rule="evenodd" clip-rule="evenodd" d="M29.9998 14.9188V15.0791C29.9874 17.4442 29.4277 19.6798 28.4408 21.6656H1.55919C0.561175 19.6573 0 17.3937 0 14.999C0 12.6042 0.561179 10.3405 1.55921 8.33228H28.4408C29.4277 10.3181 29.9874 12.5537 29.9998 14.9188Z" fill="#0549C6"/>
<path fill-rule="evenodd" clip-rule="evenodd" d="M5.57129 3.33358C8.1475 1.24891 11.428 0.000244141 15.0002 0.000244141C18.5723 0.000244141 21.8529 1.24891 24.4291 3.33358H5.57129Z" fill="#C5310D"/>
<path fill-rule="evenodd" clip-rule="evenodd" d="M24.4287 26.6664C21.8525 28.7511 18.572 29.9998 14.9998 29.9998C11.4277 29.9998 8.14714 28.7511 5.57093 26.6664L24.4287 26.6664Z" fill="#C5310D"/>
</svg>
