<svg width="72" height="64" viewBox="0 0 72 64" fill="none" xmlns="http://www.w3.org/2000/svg">
<path d="M53.5843 1.54309L71.1686 32L53.5843 62.4569L18.4157 62.4569L0.831381 32L18.4157 1.54308L53.5843 1.54309Z" fill="#1A1A1A" stroke="#E29886" stroke-width="1.44"/>
<path d="M29.5607 28.5607C28.9749 29.1464 28.0251 29.1464 27.4393 28.5607C26.8536 27.9749 26.8536 27.0251 27.4393 26.4393L34.9393 18.9393C35.5251 18.3536 36.4749 18.3536 37.0607 18.9393L44.5607 26.4393C45.1464 27.0251 45.1464 27.9749 44.5607 28.5607C43.9749 29.1464 43.0251 29.1464 42.4393 28.5607L37.5 23.6213L37.5 44.0833C37.5 44.8657 36.8284 45.5 36 45.5C35.1716 45.5 34.5 44.8657 34.5 44.0833L34.5 23.6213L29.5607 28.5607Z" fill="#FF5100"/>
</svg>
