<svg width="72" height="64" viewBox="0 0 72 64" fill="none" xmlns="http://www.w3.org/2000/svg">
<path d="M53.5843 62.4569L71.1686 32L53.5843 1.54309L18.4157 1.54309L0.831381 32L18.4157 62.4569L53.5843 62.4569Z" fill="#1A1A1A" stroke="#E29886" stroke-width="1.44"/>
<path d="M29.5607 35.4393C28.9749 34.8536 28.0251 34.8536 27.4393 35.4393C26.8536 36.0251 26.8536 36.9749 27.4393 37.5607L34.9393 45.0607C35.5251 45.6464 36.4749 45.6464 37.0607 45.0607L44.5607 37.5607C45.1464 36.9749 45.1464 36.0251 44.5607 35.4393C43.9749 34.8536 43.0251 34.8536 42.4393 35.4393L37.5 40.3787L37.5 19.9167C37.5 19.1343 36.8284 18.5 36 18.5C35.1716 18.5 34.5 19.1343 34.5 19.9167L34.5 40.3787L29.5607 35.4393Z" fill="#FF5100"/>
</svg>
