<svg width="25" height="24" viewBox="0 0 25 24" fill="none" xmlns="http://www.w3.org/2000/svg">
<path d="M16.5087 2.50098H8.15927C6.04637 2.50098 4.33398 4.0896 4.33398 6.04979V14.9522C4.33398 16.9124 6.04637 18.501 8.15927 18.501H16.5087C18.6216 18.501 20.334 16.9124 20.334 14.9522V6.04979C20.334 4.0896 18.6216 2.50098 16.5087 2.50098ZM7.46451 15.9493C6.84739 15.9493 6.3488 15.4868 6.3488 14.9142C6.3488 14.3417 6.84739 13.8792 7.46451 13.8792C8.08162 13.8792 8.58022 14.3417 8.58022 14.9142C8.58022 15.4868 8.08162 15.9493 7.46451 15.9493ZM11.6372 9.67444C11.6372 10.1597 11.2121 10.5541 10.689 10.5541H6.95365C6.43054 10.5541 6.0055 10.1597 6.0055 9.67444V7.47159C6.0055 6.99387 6.42236 6.60714 6.9373 6.60714H10.7054C11.2203 6.60714 11.6372 6.99387 11.6372 7.47159V9.67444ZM11.2203 4.30192C11.2203 3.72941 11.7189 3.26685 12.336 3.26685C12.9531 3.26685 13.4517 3.72941 13.4517 4.30192C13.4517 4.87444 12.9531 5.337 12.336 5.337C11.7189 5.337 11.2203 4.87444 11.2203 4.30192ZM17.2075 15.9493C16.5904 15.9493 16.0918 15.4868 16.0918 14.9142C16.0918 14.3417 16.5904 13.8792 17.2075 13.8792C17.8247 13.8792 18.3233 14.3417 18.3233 14.9142C18.3233 15.4868 17.8247 15.9493 17.2075 15.9493ZM18.6584 9.67444C18.6584 10.1597 18.2333 10.5541 17.7102 10.5541H13.9749C13.4517 10.5541 13.0267 10.1597 13.0267 9.67444V7.47159C13.0267 6.99387 13.4436 6.60714 13.9585 6.60714H17.7266C18.2415 6.60714 18.6584 6.99387 18.6584 7.47159V9.67444Z" fill="white"/>
<path d="M14.4768 19.501H10.1911C9.71774 19.501 9.33398 19.8847 9.33398 20.3581V20.6438C9.33398 21.1172 9.71774 21.501 10.1911 21.501H14.4768C14.9502 21.501 15.334 21.1172 15.334 20.6438V20.3581C15.334 19.8847 14.9502 19.501 14.4768 19.501Z" fill="white"/>
</svg>
