<svg width="25" height="24" viewBox="0 0 25 24" fill="none" xmlns="http://www.w3.org/2000/svg">
<g clip-path="url(#clip0_5_1761)">
<path d="M24.667 12C24.667 5.37258 19.2944 0 12.667 0C6.03958 0 0.666992 5.37258 0.666992 12C0.666992 18.6274 6.03958 24 12.667 24C19.2944 24 24.667 18.6274 24.667 12Z" fill="#1877F2"/>
<path d="M17.3381 15.4688L17.8701 12H14.542V9.74906C14.542 8.80008 15.007 7.875 16.4976 7.875H18.0107V4.92188C18.0107 4.92188 16.6375 4.6875 15.3246 4.6875C12.5836 4.6875 10.792 6.34875 10.792 9.35625V12H7.74512V15.4688H10.792V23.8542C11.403 23.9501 12.029 24 12.667 24C13.305 24 13.931 23.9501 14.542 23.8542V15.4688H17.3381Z" fill="white"/>
</g>
<defs>
<clipPath id="clip0_5_1761">
<rect width="25" height="24" fill="white"/>
</clipPath>
</defs>
</svg>
