<svg width="25" height="24" viewBox="0 0 25 24" fill="none" xmlns="http://www.w3.org/2000/svg">
<g clip-path="url(#clip0_5_1767)">
<path d="M24.667 12C24.667 5.37258 19.2944 0 12.667 0C6.03958 0 0.666992 5.37258 0.666992 12C0.666992 18.6274 6.03958 24 12.667 24C19.2944 24 24.667 18.6274 24.667 12Z" fill="url(#paint0_linear_5_1767)"/>
<path d="M12.6672 5.28459C14.8536 5.28459 15.1128 5.29179 15.9768 5.33259C16.776 5.36859 17.2104 5.50299 17.4984 5.61579C17.88 5.76459 18.1536 5.94219 18.4392 6.22779C18.7248 6.51339 18.9024 6.78699 19.0512 7.16859C19.164 7.45659 19.296 7.89099 19.3344 8.69019C19.3728 9.55419 19.3824 9.81339 19.3824 11.9998C19.3824 14.1862 19.3752 14.4454 19.3344 15.3094C19.2984 16.1086 19.164 16.543 19.0512 16.831C18.9024 17.2126 18.7248 17.4862 18.4392 17.7718C18.1536 18.0574 17.88 18.235 17.4984 18.3838C17.2104 18.4966 16.776 18.6286 15.9768 18.667C15.1128 18.7054 14.8536 18.715 12.6672 18.715C10.4808 18.715 10.2216 18.7078 9.35763 18.667C8.55843 18.631 8.12403 18.4966 7.83603 18.3838C7.45443 18.235 7.18083 18.0574 6.89523 17.7718C6.60963 17.4862 6.43203 17.2126 6.28323 16.831C6.17043 16.543 6.03843 16.1086 6.00003 15.3094C5.96163 14.4454 5.95203 14.1862 5.95203 11.9998C5.95203 9.81339 5.95923 9.55419 6.00003 8.69019C6.03603 7.89099 6.17043 7.45659 6.28323 7.16859C6.43203 6.78699 6.60963 6.51339 6.89523 6.22779C7.18083 5.94219 7.45443 5.76459 7.83603 5.61579C8.12403 5.50299 8.55843 5.37099 9.35763 5.33259C10.2216 5.29179 10.4808 5.28459 12.6672 5.28459ZM12.6672 3.80859C10.4424 3.80859 10.164 3.81819 9.29043 3.85899C8.41923 3.89979 7.82403 4.03659 7.30083 4.24059C6.76323 4.44699 6.30483 4.72779 5.85123 5.18379C5.39523 5.63979 5.11683 6.09579 4.90563 6.63579C4.70403 7.15659 4.56483 7.75179 4.52403 8.62539C4.48323 9.49899 4.47363 9.77739 4.47363 12.0022C4.47363 14.227 4.48323 14.5054 4.52403 15.379C4.56483 16.2502 4.70163 16.8454 4.90563 17.3686C5.11443 17.9038 5.39523 18.3622 5.85123 18.8158C6.30723 19.2718 6.76323 19.5502 7.30323 19.7614C7.82403 19.963 8.41923 20.1022 9.29283 20.143C10.1664 20.1838 10.4448 20.1934 12.6696 20.1934C14.8944 20.1934 15.1728 20.1838 16.0464 20.143C16.9176 20.1022 17.5128 19.9654 18.036 19.7614C18.5712 19.5526 19.0296 19.2718 19.4832 18.8158C19.9392 18.3598 20.2176 17.9038 20.4288 17.3638C20.6304 16.843 20.7696 16.2478 20.8104 15.3742C20.8512 14.5006 20.8608 14.2222 20.8608 11.9974C20.8608 9.77259 20.8512 9.49419 20.8104 8.62059C20.7696 7.74939 20.6328 7.15419 20.4288 6.63099C20.22 6.09579 19.9392 5.63739 19.4832 5.18379C19.0272 4.72779 18.5712 4.44939 18.0312 4.23819C17.5104 4.03659 16.9152 3.89739 16.0416 3.85659C15.1704 3.81819 14.892 3.80859 12.6672 3.80859Z" fill="white"/>
<path d="M12.6672 7.79297C10.344 7.79297 8.45996 9.67697 8.45996 12.0002C8.45996 14.3234 10.344 16.2074 12.6672 16.2074C14.9904 16.2074 16.8744 14.3234 16.8744 12.0002C16.8744 9.67697 14.9904 7.79297 12.6672 7.79297ZM12.6672 14.7314C11.16 14.7314 9.93596 13.5098 9.93596 12.0002C9.93596 10.4906 11.16 9.26897 12.6672 9.26897C14.1744 9.26897 15.3984 10.4906 15.3984 12.0002C15.3984 13.5098 14.1744 14.7314 12.6672 14.7314Z" fill="white"/>
<path d="M17.0397 8.61156C17.5831 8.61156 18.0237 8.171 18.0237 7.62755C18.0237 7.08411 17.5831 6.64355 17.0397 6.64355C16.4962 6.64355 16.0557 7.08411 16.0557 7.62755C16.0557 8.171 16.4962 8.61156 17.0397 8.61156Z" fill="white"/>
</g>
<defs>
<linearGradient id="paint0_linear_5_1767" x1="4.18171" y1="20.4853" x2="21.1523" y2="3.51472" gradientUnits="userSpaceOnUse">
<stop stop-color="#FFD521"/>
<stop offset="0.0551048" stop-color="#FFD020"/>
<stop offset="0.1241" stop-color="#FEC01E"/>
<stop offset="0.2004" stop-color="#FCA71B"/>
<stop offset="0.2821" stop-color="#FA8316"/>
<stop offset="0.3681" stop-color="#F85510"/>
<stop offset="0.4563" stop-color="#F51E09"/>
<stop offset="0.5" stop-color="#F30005"/>
<stop offset="0.5035" stop-color="#F20007"/>
<stop offset="0.5966" stop-color="#E1003B"/>
<stop offset="0.6879" stop-color="#D30067"/>
<stop offset="0.7757" stop-color="#C70088"/>
<stop offset="0.8589" stop-color="#BF00A0"/>
<stop offset="0.9357" stop-color="#BB00AF"/>
<stop offset="1" stop-color="#B900B4"/>
</linearGradient>
<clipPath id="clip0_5_1767">
<rect width="25" height="24" fill="white"/>
</clipPath>
</defs>
</svg>
