<svg width="25" height="24" viewBox="0 0 25 24" fill="none" xmlns="http://www.w3.org/2000/svg">
<g clip-path="url(#clip0_4_1754)">
<path d="M24.667 12C24.667 5.37258 19.2944 0 12.667 0C6.03958 0 0.666992 5.37258 0.666992 12C0.666992 18.6274 6.03958 24 12.667 24C19.2944 24 24.667 18.6274 24.667 12Z" fill="#00CF2E"/>
<path d="M21.1045 10.7168C21.1045 7.62305 17.4482 4.24805 12.667 4.24805C8.00879 4.24805 4.22949 6.99023 4.22949 10.7168C4.22949 14.1551 7.17559 16.9957 11.3205 17.4141C11.4468 17.4245 11.569 17.4634 11.678 17.528C11.787 17.5925 11.88 17.681 11.9498 17.7867C12.0494 17.9434 12.103 18.1249 12.1045 18.3105C12.0948 18.692 12.0525 19.0719 11.9779 19.4461C11.9664 19.4968 11.9692 19.5497 11.986 19.5989C12.0028 19.6482 12.0329 19.6918 12.073 19.7249C12.113 19.7581 12.1615 19.7795 12.213 19.7867C12.2645 19.794 12.317 19.7868 12.3646 19.766C14.351 18.8871 21.1045 15.273 21.1045 10.7168Z" fill="white"/>
<path d="M9.57324 12.2637H8.30762V9.31055C8.30762 9.19866 8.26317 9.09135 8.18405 9.01224C8.10494 8.93312 7.99763 8.88867 7.88574 8.88867C7.77385 8.88867 7.66655 8.93312 7.58743 9.01224C7.50831 9.09135 7.46387 9.19866 7.46387 9.31055V12.6855C7.46387 12.7974 7.50831 12.9047 7.58743 12.9839C7.66655 13.063 7.77385 13.1074 7.88574 13.1074H9.57324C9.68513 13.1074 9.79244 13.063 9.87155 12.9839C9.95067 12.9047 9.99512 12.7974 9.99512 12.6855C9.99512 12.5737 9.95067 12.4664 9.87155 12.3872C9.79244 12.3081 9.68513 12.2637 9.57324 12.2637Z" fill="#00CF2E"/>
<path d="M10.6982 8.88867C10.5864 8.88867 10.479 8.93312 10.3999 9.01224C10.3208 9.09135 10.2764 9.19866 10.2764 9.31055V12.6855C10.2764 12.7974 10.3208 12.9047 10.3999 12.9839C10.479 13.063 10.5864 13.1074 10.6982 13.1074C10.8101 13.1074 10.9174 13.063 10.9966 12.9839C11.0757 12.9047 11.1201 12.7974 11.1201 12.6855V9.31055C11.1201 9.19866 11.0757 9.09135 10.9966 9.01224C10.9174 8.93312 10.8101 8.88867 10.6982 8.88867Z" fill="#00CF2E"/>
<path d="M14.6354 8.88867C14.58 8.88867 14.5251 8.89958 14.4739 8.92079C14.4227 8.94199 14.3762 8.97306 14.337 9.01224C14.2979 9.05141 14.2668 9.09792 14.2456 9.1491C14.2244 9.20029 14.2135 9.25515 14.2135 9.31055V11.4199L12.4557 9.05742C12.4025 8.98659 12.3285 8.93426 12.244 8.90786C12.1594 8.88146 12.0688 8.88232 11.9848 8.91032C11.9008 8.93832 11.8277 8.99204 11.7759 9.06387C11.7241 9.1357 11.6963 9.222 11.6963 9.31055V12.6855C11.7142 12.7825 11.7655 12.8701 11.8413 12.9331C11.9171 12.9962 12.0126 13.0307 12.1111 13.0307C12.2097 13.0307 12.3052 12.9962 12.381 12.9331C12.4567 12.8701 12.5081 12.7825 12.526 12.6855V10.5762L14.2838 12.9387C14.3243 12.9932 14.3775 13.0371 14.4387 13.0665C14.5 13.0959 14.5675 13.11 14.6354 13.1074C14.6807 13.1073 14.7258 13.1002 14.7689 13.0863C14.853 13.0583 14.9261 13.0044 14.9778 12.9325C15.0296 12.8606 15.0574 12.7742 15.0572 12.6855V9.31055C15.0572 9.25515 15.0463 9.20029 15.0251 9.1491C15.0039 9.09792 14.9728 9.05141 14.9337 9.01224C14.8945 8.97306 14.848 8.94199 14.7968 8.92079C14.7456 8.89958 14.6908 8.88867 14.6354 8.88867Z" fill="#00CF2E"/>
<path d="M17.7295 11.4199C17.7849 11.4199 17.8398 11.409 17.8909 11.3878C17.9421 11.3666 17.9886 11.3355 18.0278 11.2964C18.067 11.2572 18.0981 11.2107 18.1193 11.1595C18.1405 11.1083 18.1514 11.0534 18.1514 10.998C18.1514 10.9426 18.1405 10.8878 18.1193 10.8366C18.0981 10.7854 18.067 10.7389 18.0278 10.6997C17.9886 10.6606 17.9421 10.6295 17.8909 10.6083C17.8398 10.5871 17.7849 10.5762 17.7295 10.5762H16.4639V9.73242H17.7295C17.8414 9.73242 17.9487 9.68797 18.0278 9.60886C18.1069 9.52974 18.1514 9.42243 18.1514 9.31055C18.1514 9.19866 18.1069 9.09135 18.0278 9.01224C17.9487 8.93312 17.8414 8.88867 17.7295 8.88867H16.042C15.9301 8.88867 15.8228 8.93312 15.7437 9.01224C15.6646 9.09135 15.6201 9.19866 15.6201 9.31055V12.6855C15.6201 12.7974 15.6646 12.9047 15.7437 12.9839C15.8228 13.063 15.9301 13.1074 16.042 13.1074H17.7295C17.8414 13.1074 17.9487 13.063 18.0278 12.9839C18.1069 12.9047 18.1514 12.7974 18.1514 12.6855C18.1514 12.5737 18.1069 12.4664 18.0278 12.3872C17.9487 12.3081 17.8414 12.2637 17.7295 12.2637H16.4639V11.4199H17.7295Z" fill="#00CF2E"/>
</g>
<defs>
<clipPath id="clip0_4_1754">
<rect width="25" height="24" fill="white"/>
</clipPath>
</defs>
</svg>
