<svg width="25" height="24" viewBox="0 0 25 24" fill="none" xmlns="http://www.w3.org/2000/svg">
<circle cx="12.333" cy="12" r="10" fill="white"/>
<path d="M8.83301 7H13.1108C14.2404 7 15.1432 7.3052 15.8191 7.91559C16.495 8.52599 16.833 9.37959 16.833 10.4764C16.833 11.6018 16.495 12.4745 15.8191 13.0944C15.1525 13.7048 14.2497 14.01 13.1108 14.01H11.2913V17H8.83301V7ZM12.7219 11.8784C13.2126 11.8784 13.5969 11.7735 13.8747 11.5637C14.1617 11.3538 14.3052 10.9914 14.3052 10.4764C14.3052 9.96137 14.1663 9.60849 13.8886 9.41774C13.6108 9.22699 13.2219 9.13162 12.7219 9.13162H11.2913V11.8784H12.7219Z" fill="black"/>
</svg>
