<svg width="25" height="24" viewBox="0 0 25 24" fill="none" xmlns="http://www.w3.org/2000/svg">
<g clip-path="url(#clip0_5_1764)">
<path d="M24.667 12C24.667 5.37258 19.2944 0 12.667 0C6.03958 0 0.666992 5.37258 0.666992 12C0.666992 18.6274 6.03958 24 12.667 24C19.2944 24 24.667 18.6274 24.667 12Z" fill="#24ACFF"/>
<path d="M9.88307 18.0958C15.5423 18.0958 18.6407 13.4062 18.6407 9.33822C18.6407 9.20622 18.6407 9.07182 18.6311 8.93982C19.2335 8.50302 19.7543 7.96542 20.1671 7.34622C19.6055 7.59582 19.0103 7.75902 18.4007 7.83102C19.0439 7.44702 19.5239 6.84222 19.7543 6.12942C19.1495 6.48702 18.4895 6.74142 17.8007 6.87582C16.6343 5.63742 14.6855 5.57742 13.4471 6.74142C12.6479 7.49262 12.3095 8.61342 12.5567 9.68142C10.0823 9.55662 7.77588 8.38782 6.21348 6.46542C5.39748 7.87182 5.81266 9.66942 7.16627 10.5742C6.67667 10.5598 6.19668 10.4278 5.76948 10.1902C5.76948 10.2022 5.76948 10.2166 5.76948 10.2286C5.76948 11.6926 6.80147 12.955 8.23907 13.2454C7.78548 13.3678 7.31028 13.387 6.84948 13.2982C7.25268 14.551 8.40707 15.4102 9.72467 15.4366C8.63507 16.2934 7.28867 16.759 5.90387 16.7566C5.65907 16.7566 5.41427 16.7422 5.17188 16.711C6.57346 17.6158 8.21267 18.0958 9.88307 18.0934" fill="white"/>
</g>
<defs>
<clipPath id="clip0_5_1764">
<rect width="25" height="24" fill="white"/>
</clipPath>
</defs>
</svg>
